<svg id="Layer_1" data-name="Layer 1" xmlns="http://www.w3.org/2000/svg" viewBox="0 0 859.94 880.89"><defs><style>.cls-1{fill:#fde000;}</style></defs><title>essentials</title><path class="cls-1" d="M73.18,172.23c-34.9,57.84-57,120.85-67.78,192.68-7.1,47.79-6.69,98,1.42,153.61,6.7,45.76,19.48,91.52,39,140.12,2.34,5,4.57,10.05,6.9,15,5,11,10.15,22.32,15.63,33.28,10.25,20.6,24,41.09,44.54,66.46,15,18.56,32.06,37.54,54.59,50.42,10.75,6.19,25.36,12.58,42.92,6.8,2.74-.91,6.19-.2,8.32.71a644.63,644.63,0,0,0,139.71,40c43.12,7.2,83.2,7.51,122.67.71,35.91-6.19,69.6-18.27,100.75-30.44,43.22-16.84,79.85-38.66,112-66.46,34.4-29.83,64-62.8,88.07-98,25.27-37,43.53-73.36,55.6-110.9a448,448,0,0,0,22.12-124c1.12-32.87-.61-62.19-5.17-89.69-4.37-26.28-12.58-54-25.06-84.62q-1.23-2.88-2.44-6.08c-9.94-23.75-19.28-43.23-32.26-61.19-16.44-22.82-36.84-44.84-64.13-69.09A508,508,0,0,0,594.69,44.49c-58.24-25.16-113-39-167.41-42.2-34.29-2-69.6.91-107.75,9.23s-74.88,23-109.28,37.54c-25.77,10.86-47.68,24-67.16,40.18C116.3,111.46,93.47,138.65,73.18,172.23Zm114.35-68.38c19.68-12.48,41.8-22.12,63.21-31.35l1.52-.71A392.2,392.2,0,0,1,368.54,41.35c43.52-4.77,88.27-.41,137,13.29C556,68.85,603.32,91.17,650.09,123.13s82.59,66,109.89,104.2c10.24,14.3,18.87,30.74,28,53.06,3.14,7.71,6.09,15.63,8.62,22.32,15.53,41.6,22.53,87.06,21.41,138.91A397.73,397.73,0,0,1,789.6,581.84c-14.51,36.12-35.81,71.63-63.21,105.42a460.94,460.94,0,0,1-76.91,75.18c-22,16.94-47.38,30.94-77.41,42.82-1.93.81-4,1.62-6,2.43-.91.41-1.82.71-2.74,1.12a414.57,414.57,0,0,1-99.94,29.52c-34.29,5.38-69.4,5.18-107.45-.61-50-7.61-92.83-19-130.88-34.9-48.81-20.39-85.33-53.77-111.71-102a630.19,630.19,0,0,1-30.64-64.22,565.52,565.52,0,0,1-22.43-66.26c-21.81-80.86-29.52-158.48-8-233C62.32,302.41,101.89,201,102,201,127.06,155.8,154.35,125,187.53,103.85Z"/><path class="cls-1" d="M743.47,366.32c-24.74-47.79-71-82.93-122.76-96.6a182.64,182.64,0,0,0-27.51-5c30.86-28.3,71.78-45.41,111-58.51,13.21-4.42,9.14-22-3.22-24.5-35.82-7.3-74.85-9.42-108.7,6.73A130.38,130.38,0,0,0,555.59,214c-10.67,10.83-19.12,23.74-27.62,36.27-3.67,5.42-.32,13.8,4.55,17.22,5.54,3.87,11.92,2.33,15.57-3,7.73-11.4,14.46-21.75,24.11-31.54,9.36-9.51,19.56-16.17,31.91-22.06,13.91-6.64,28.92-9.5,44.17-10-39.4,17.63-75.49,41.53-100,78.52-7.82,11.78,11.47,27.19,20.12,14.16,2.49-3.75,5.15-7.33,7.92-10.8a14.78,14.78,0,0,0,4.08.66,159.1,159.1,0,0,1,81.77,23.42,167.3,167.3,0,0,1,38.17,32.24,637.11,637.11,0,0,0-109.74-46.31c-4.94-1.56-12.3.61-12.74,6.54-.49,6.51,6.26,10.65,11.52,12.31a586.24,586.24,0,0,1,136.55,63.49c4.19,2.66,10,4.58,14.77,2.14C744.91,375.05,745.53,370.3,743.47,366.32Z"/><path class="cls-1" d="M218.66,665.7c34.39-46.11,84.85-79.92,141.23-92.21,33-7.21,67.33-6.17,100.9-4.8,34.17,1.38,69,5,101.25,17a226,226,0,0,1,84.76,55.82c3.44,3.6,10,7,13.92,2,3.73-4.7,1-12.71-2.64-16.58a256.84,256.84,0,0,0-80.28-57.3c14.61-37,24-76.34,24.11-116.29a262.78,262.78,0,0,0-20-101A307.91,307.91,0,0,0,557,304.9a21.44,21.44,0,0,0-11.68-8.34c-3.73-.94-5,.81-2.93,4.1,16.66,26.2,29.44,55.07,36.29,85.41,8,35.25,8,71.86,1.52,107.34a349.91,349.91,0,0,1-20.68,68.94,264.62,264.62,0,0,0-25.86-7.55c-.73-2.88-3.32-4.94-7-5.37q-9-1-18-1.95c7.37-18,14.86-36,22-54.12s13.91-36.73,17.78-56c6.76-33.64,6.59-70.41-4.85-103.06-5.61-16-13.56-31.52-25.84-43.45-4.42-4.3-11.37-6.37-16.3-1.49A9.69,9.69,0,0,0,500,291c-35,13.92-66.8,34.18-97.49,56,21-33.32,51.63-61.06,89.26-72.93,4.55.85,9.09,1.73,13.62,2.69,4.14.88,9.66-.23,10.2-5.23.52-4.85-5.08-9-9.22-9.85a548.5,548.5,0,0,0-113-12.07,142.77,142.77,0,0,1,44.85-12.43c25.1-2.57,50.33,2.41,74.26,9.69,4.07,1.24,9.68-.49,10.19-5.24.55-5.13-5.13-8.6-9.21-9.85-26.72-8.12-54.44-12.7-82.38-10.14-28.44,2.6-55.16,13.75-78.47,30-7.85,5.46,1,15.37,8.45,14.89a533.78,533.78,0,0,1,99.13,2.72C416.58,288.59,383.9,329,366.74,373.07c-.86,2.2,15.37,11.83,17.51,10.25,37.58-27.71,75.69-56.05,118.27-75.6,1.76,1.76,3.45,3.57,5,5.49.95,1.16,1.85,2.35,2.74,3.54.26.35.51.71.76,1.07s.87,1.36,1,1.56a114.6,114.6,0,0,1,8.9,18,160.41,160.41,0,0,1,5.2,18.39,152.93,152.93,0,0,1,3.08,21.41c2.49,34.57-5.48,67.35-17.81,99.44-7.65,19.93-16,39.61-24.1,59.38a15.63,15.63,0,0,0-.86,9.41q-33.39-2.76-66.9-3.62c-17.49-.44-35.07-.79-52.55.11-12.35.64-24.52,2.68-35.91,7.18-3.11-3-6.29-5.9-9.38-8.77l-.51-.49c-11.08-10.19-11.69-12.14-21.37-20.91a4.79,4.79,0,0,1-1.86-4.14,133.19,133.19,0,0,0-1.65-28.73c-2.28-14.69-3.05-26.73-2.4-37.69.29-4.64.22-9.29.21-13.82,0-1.05,0-2.11,0-3.17,0-2.12-.09-4.18-.17-6.24,0-1.65-.13-3.36-.17-5-.1-5.12-.14-10.3-.19-15.36l0-2c3.9,8.19,9.05,15.91,14,23.44,1.81,2.74,3.67,5.54,5.47,8.39a232.78,232.78,0,0,1,15.34,27.92q1,2.07,1.74,4.14c.74,1.74,1.47,3.54,2.33,5.29,1.6,3.31,3.67,6.71,7.67,9a9.72,9.72,0,0,0,4.17,1.38,7.61,7.61,0,0,0,3.27-.6c3.78-1.64,4.61-4.19,4.64-6a19.69,19.69,0,0,0-.74-5.21A117.64,117.64,0,0,0,338,440c-6.59-10.67-13.66-21.31-20.57-31.65l-4.1-6.2c-4.17-6.26-8.56-12.65-12.73-18.79-1.48-2.19-3-4.32-4.45-6.51a21.39,21.39,0,0,0,12.81-8.2c8.15-10.24,13.91-19.78,17.61-29.25a33.83,33.83,0,0,0,2.46-10.7,21.56,21.56,0,0,0-3.16-12.27,31.51,31.51,0,0,0-23.22-13.6,26.83,26.83,0,0,0-9.47,1.24,27.77,27.77,0,0,0-13.11,8.3c-3.05,3.56-6.14,7.76-3.94,13.22.16.36-.17,1.22-.38,1.86-.07.29-.2.52-.28.81a8,8,0,0,1-.59,1.44,14.43,14.43,0,0,0-.82,2.2c-.45,2-.84,4.07-1.23,6.05-.47,2.33-.94,4.72-1.53,7.1-1.78,7.68-.93,14.37,2.59,20.54,2.71,4.66,6.19,9.24,13.46,10.83.06,0,.06,0,.12.06a8.32,8.32,0,0,1-.48,1.33c-.46,1.1-.93,2.19-1.39,3.23-.37.75-.71,1.51-1,2.29a4.11,4.11,0,0,0,.06-2.75,3.91,3.91,0,0,0-2.13-2.1,7.93,7.93,0,0,0-1.92-.45c-2.17-.11-3.48,1.42-4.42,2.55-.12.17-.25.28-.37.45-8.16,9.19-14.79,19.86-21.58,34.7-5.19,11.28-8.69,23.87-10.63,38.36-.29,2.28-.75,4.55-1.16,6.76-.17,1.05-.39,2.1-.56,3.15v.12l-.44,9,.1.29a12.51,12.51,0,0,1,.41,1.26,7.33,7.33,0,0,0,1.83,3.5,11.53,11.53,0,0,0,6.14,3.12l.59,0a6.69,6.69,0,0,0,6.47-3.62,13.64,13.64,0,0,0,1.36-4.94,168.37,168.37,0,0,1,4-30c3.73-16.17,7.56-29.57,14.2-42.59,2.47-4.82,4.89-9.76,7.39-15.17l.06-.17.06-.12a34.68,34.68,0,0,0-1.17,3.71,67.8,67.8,0,0,0-2.13,14.6c-.23,5.87-.22,11.81-.21,17.57,0,3.65,0,7.47,0,11.18-.07,5.05-.2,10.16-.32,15.1-.09,4.29-.25,8.69-.29,13v.23a104.77,104.77,0,0,0,.21,11.48c.79,8.92,1.77,17.91,2.69,26.66.24,2.25.49,4.55.73,6.8a7.17,7.17,0,0,1-.11,2.35,24.57,24.57,0,0,0-4,4.91c-3.06,4.65-5.93,9.44-8.73,14.24q-8.67,14.83-16,30.38c-4.23,8.93-9.77,19-9.63,29.19a11.64,11.64,0,0,0,7.76,9.78,260,260,0,0,0-50.63,51.16C195.33,656.17,211,676,218.66,665.7Zm67-315.85c-.21-4.07-.12-8.24-.1-12.3,0-1.35,0-2.76,0-4.17l.3.07,2,.4.88.22.55-.57c1.17-1.11,2.29-2.24,3.34-3.36a76.49,76.49,0,0,1,7.77-7.27c1.65-1.27,4.34-2.2,8.08-2.9a3.37,3.37,0,0,1,.71,0c2.28.11,4.93,2.48,5.69,5.1a16.82,16.82,0,0,1-.9,11.19c-4.41,10.84-10.88,19.11-19.7,25.27a4.76,4.76,0,0,1-2.47,1.11c-.35,0-.93-.22-2.15-1.63A18.33,18.33,0,0,1,285.62,349.85Zm-20.18,236,.85-1.72c4-8.1,22-39.56,26.27-47.7a1,1,0,0,0,0-.67c.62-.68,1.2-1.38,1.76-2.1,2.51,2.64,5.12,5.29,7.57,7.87l5.76,6c2.35,2.46-3.87-1.51-1.58.9,3.06,3.25,6.21,6.55,9.38,9.84a14,14,0,0,0-2.17,3.41,254.52,254.52,0,0,0-34.63,16.84c-4.7,2.75-9.31,5.67-13.83,8.72A10,10,0,0,1,265.44,585.87Z"/><path class="cls-1" d="M646.76,654.31c-1,.65-2,1.24-3,1.79-21.41-6.79-37.44-25.19-58.45-33.29-12.55-4.84-25.41-3.95-37.87,0a48.73,48.73,0,0,0-6.84,1.67c-9.85,3.19-18.47,8.7-27.66,13.29-.76.38-1.5.74-2.23,1.08-4.9.34-9.86-1.71-14.36-3.87-16.18-7.77-31.17-19.32-50.07-17.6a23.62,23.62,0,0,0-7.25,2,67.63,67.63,0,0,0-12.54-.64c-14.44.64-28.68,5-42,10.36-12.46,5-23.66,12.46-31.43,23.57-3.6,5.13,2.6,10.86,7,12.49,5.63,2.08,12.79,1.29,16.41-3.88,6-8.57,15.66-13.56,25.22-17.2,10.09-3.85,21.46-7.37,32.38-6.92,9.56.41,17.56,5.22,26.37,10.13,9.75,5.45,19.69,10.69,30.79,12.74,11.56,2.15,22.93-.16,33.54-4.87,8.91-3.94,17-9.89,26.19-13.17a42.72,42.72,0,0,1,5.08-1.31c-1.15.19,4.75.07,3-.12,3.49.38,5.08,1.3,8.55,3.63,7,4.74,13.65,12.62,20.66,18.51,20.56,17.28,50.84,22.41,74.22,7.14C675.61,661.29,656.71,647.81,646.76,654.31Z"/><path class="cls-1" d="M507.24,673.36c-17.76-1.41-32,5.75-44.71,17.51-9.24,8.54-19.14,20.51-33.22,17.66-7.78-1.58-14.65-6.25-21.41-10.17-7.72-4.48-15.76-8.56-24.43-10.85a83.23,83.23,0,0,0-53,3.31c-2.75,1.11-3.7,3.55-3.66,6.21-6.76,3.29-12.85,8-19.3,12.2-1.75,1.15-3.56,2.25-5.43,3.25-5.88,2.72-12.15,4.43-18.57,3-5.59-1.23-10.67-4.25-15.59-7.07a157.25,157.25,0,0,0-19.51-10,117.53,117.53,0,0,0-32.75-8c-22-3.57-44.77-1.27-65.24,8a5.22,5.22,0,0,0-3.19,1.51c-.57.28-1.15.56-1.71.86-1.39.71-1.1,1.83-.12,3a11.81,11.81,0,0,0,.67,6.31,16.28,16.28,0,0,0,14.54,10c15.06.2,29.19-6.85,44.17-8.09a91.88,91.88,0,0,1,38.81,5c12.79,4.66,23.58,13.39,36.4,17.83s25.13,3.43,37.18-2.34c10.28-4.93,19.34-12.13,29.9-16.52,12.57-5.23,24-1.6,36,3.57,23.23,10.07,50.27,25.3,75,11.35,10-5.65,18.35-13.6,27.19-20.79,8.1-6.59,16.76-12.37,27.12-12.61a5.7,5.7,0,0,0,5.53-4,8,8,0,0,0,2.86-8.33C519.44,679.19,513.35,673.85,507.24,673.36Z"/></svg>