<svg id="Layer_1" data-name="Layer 1" xmlns="http://www.w3.org/2000/svg" viewBox="0 0 859.94 880.89"><defs><style>.cls-1{fill:#fde000;}</style></defs><title>local-community</title><path class="cls-1" d="M45.89,670.74c-12.46-22.25-22-41.42-28.31-62.68-8-27-13-56.73-15.87-93.41A537.1,537.1,0,0,1,13.52,352C28,289.55,49.06,236.64,78.05,190.25c18.29-29.27,41-56.27,69.48-82.55s61.09-47.47,92.13-67c23.22-14.6,46-24.76,69.69-31.06C341.88,1,376-1.55,413.5,1.84c64.55,5.85,125.73,25.14,187,59,40.81,22.53,79.1,52.73,117.06,92.33,31.24,32.58,59,70.2,85,115q3.74,7.29,7.53,14.54c5.52,10.61,11.23,21.58,16.49,32.56,9.89,20.62,17.66,44,25.22,75.79,5.53,23.28,10.22,48.41,7.08,74.46-1.49,12.44-5.08,28.13-19.67,39.09-2.25,1.69-3.69,4.93-4.24,7.19a678.2,678.2,0,0,1-50.25,137.82c-19.41,39.49-42.47,72.4-70.5,100.61-25.49,25.67-54.31,46-81.66,64.26-38,25.31-75.93,42.33-115.89,52-42.81,10.4-85.27,15-126.22,13.8-43.1-1.32-81.48-8-117.31-20.37a417.26,417.26,0,0,1-108-55.57c-25.87-18.64-47.4-37.43-65.83-57.43C81.79,727.79,65.3,704.68,49,676.26Q47.44,673.51,45.89,670.74ZM726.33,227.47C677,161.65,620,114.29,552.26,82.68,505.72,61,462.08,47.74,418.83,42.25,369.6,36,330.18,39.9,294.77,54.53c-21,8.68-41.15,21-60.65,33l-1.43.88a399,399,0,0,0-91,76.79c-28.78,32.72-51.37,71.9-69,119.76C54.32,334.62,44.14,386.55,41.54,443.72c-2.6,57,2.74,106.62,16.33,151.65C63,612.27,70.53,629,82.4,649.75c4.13,7.21,8.46,14.33,12.15,20.35,22.9,37.35,53.7,70,94.17,99.93a366.12,366.12,0,0,0,124.06,60c36.17,9.58,75.71,13.25,117.51,10.9a429.73,429.73,0,0,0,102.2-18.25c25.78-7.93,51.19-20.32,77.67-37.86,1.78-1.18,3.58-2.33,5.38-3.48l2.49-1.59a411.42,411.42,0,0,0,80.53-64.08c24-24.75,44.17-53.56,61.75-88.07,23.08-45.34,39.1-87.09,49-127.65,12.63-52,8.2-101.6-13.55-151.73a637.12,637.12,0,0,0-31.55-63.12,563.38,563.38,0,0,0-37.84-57.63Z"/><path class="cls-1" d="M286.39,296c-15,11.39-25,27.87-29.59,46.6-4.91,20.19-3.2,41.48.75,61.69,7.84,40.17,27.55,82.73,61.32,105.53,17.23,11.63,37.67,16.84,57.77,19.61,20.4,2.81,41.54,3.65,61.6-2,37.34-10.44,73.21-42.37,85.19-80.21,7.08-22.38,7.52-45.66,3.51-68.9-4.17-24.26-15.26-44.29-21.71-67.92-1.39-5.11-31.27-3.4-29.46,3.24,5.29,19.37,16.39,41.79,21,61.38,4.49,19.32,5.79,39.06,2.32,58.69-5.35,30.21-17.46,65-45.6,78.23-17,8-36.46,2.6-54.68.78-18.46-1.84-37.26,1.83-54.13-6.6C311,489.36,297.78,450.8,287.08,414.5c-6.12-20.75-16-43.87-13.67-65.6,2-18,12.24-37,26.62-47.94,2-1.52,1.11-5.7-2-8.19s-9.42,1.56-11.66,3.26Z"/><path class="cls-1" d="M251.67,235c-23.11.41-46.29,7.15-64.82,21.29-6.82,5.21-17.55,13.47-16.69,23.31,1.06,12.14,20.32,10.75,28.79,11.43l166.22,13.48c52.53,4.26,107.67,9.78,165.42,7.4q20.31-.83,40.53-3c12.63-1.37,25.6-2.61,38-5.47,9.12-2.1,29.93-5.82,34.92-14.36s3.3-19-1.79-27C630,243,591.89,241,571.47,239.67c-19.32-1.23-38.69-1.33-58-1.4-2.31,0-10,.19-10,3.82s7.92,7.57,10,7.58c14.91.05,29.83,1.65,44.73,2.23,7.74.3,14.77,2.14,22.42,3,1.35.15,2.7.33,4,.52-.2,0,2.84.45,1.5.22-1.64-.29,3.24.69,2,.42a52.75,52.75,0,0,1,13.07,4.36c16,8.29,23,27,2.64,34.68-9.35,3.54-20.33-2-30.16-.78-11.85,1.43-23.75,8.51-35.67,9.23-48.18,2.93-96.46.62-144.47-3.27-49.1-4-98.2-9.47-147.29-13.45-13.61-1.1-17.21-5.2-30.81-6.31l-11-.88c-1.33-.11-3.33.14-4.54-.39,2.27,1,.92.07.45-1.3-1.41-4,1.91-9.14,4.38-12,13.34-15.64,30-22.69,50.36-23.05,2.33,0,6.51-.17,6.55-3.83s-7.91-4.11-9.94-4.08Z"/><path class="cls-1" d="M343.42,176.53c10.38-.39,16.75-.71,27.13-.83,20.52-.23,41.05,9.6,61.54,10.58,9.5.46,19.07,1.11,28.39,3.13,3.23.7,8.21,1.36,10.39,4.2,2.37,3.08,2.35,2.07,2.84,5.72,2.85,21.32-1,35.19-4.27,56.44-.7,4.57,20.78-1.2,21.64-6.83a235.11,235.11,0,0,0,.89-63.81c-.52-4.3-.57-9.71-2.48-13.67s-6.33-5.28-10.33-6.33c-10.26-2.68-20.8-3.64-31.36-4.19-23.42-1.21-46.91-1.49-70.36-1.07-11.44.2-22.89.44-34.31,1.11-9.46.55-21.76,4-26.93,12.71-2.6,4.4-2.07,9.75-2.15,14.65l-.3,18.41q-.3,18.38-.6,36.76c-.08,5.25,22.05-1.44,22.13-6.83h0c.3-19,.64-33.05.94-52.07,0-1.94,0-3.9.13-5.83C336.35,178.78,335.87,176.82,343.42,176.53Z"/><path class="cls-1" d="M308.15,231.27c-9.12.75-14,2.51-22.74,5.22-2.07.64-5.28,1.43-6.63,3.35-2.24,3.2.6,8,3,10.24,8.64,8.23,18.2,16.35,29.35,17.84l36,4.81c24.22,3.24,48.44,6.61,72.7,9.55,23.55,2.85,47.55,9,71.3,7.2,10.7-.82,25-1.93,33.73-9,3.66-3,5.21-18.54,4.51-23.16-.9-6.05-5.2-8.69-10.41-11.08-2.37-1.08-9.79-4.22-12.22-2.26s4.77,4.83,5.61,5.21l1.15.53-5.29-3c6,6.35.62,14.93-5.68,18-8.27,4.05-17.86,5.14-26.93,5.84-20.07,1.53-40.29-4.46-60.22-6.76-39.65-4.58-76.69-6.8-116.26-12.09-.49-.06-7.74-.91-7.74-1.1l2.81,1.06q4.5,2.58,1.8-.33c0-1.34-1.29-2.49-.78-4.12.67-2.14,3-2.67,5-3.37a90.3,90.3,0,0,1,23.51-4.55c4.29-.36-1.09-3.84-2.28-4.46-3.78-2-8.88-3.88-13.25-3.52Z"/><path class="cls-1" d="M612.15,680.46a19.66,19.66,0,0,1,3.39.56c-1.14-.25,1.71.43.57.27a3.19,3.19,0,0,1-1.24-.87c1.12,1.24-1.23-1.56-1.68-2.21a22.2,22.2,0,0,1-2.55-4.5c-3.8-9.67-6-20.21-9.49-30.06a224.61,224.61,0,0,0-15.66-35.58c-11.39-20.18-28-38.18-49.25-48-25.05-11.57-54.68-10.49-81.69-11.31-28.35-.87-57.5-2.56-85.58,2.18-46.24,7.8-96.79,25.72-122.28,67.9-12.2,20.19-17.93,43.72-21.19,66.87-2.67,19-4.57,36.76,3.65,54,4.84,10.18,26.34,9.65,27.24,3.12h0c2.31-16.72,1.89-27.11,3.92-43.88,2.49-20.51,6.67-41.06,15.45-59.89,21-44.92,51.57-62.64,97.88-70.61,12.64-2.18,25.18-2.27,38-2.23,14.62,0,29.25-5.67,43.86-5.16,26.18.91,53.66,12.48,76.22,27.75,20.1,13.6,34,18.58,43.44,40.53,5.31,12.33,9.39,25.15,13.3,38,1.2,3.94,2.06,8.06,4,11.71,4.86,9,14.48,12,24.33,8.61,5.8-2,8-3.44,11.35-8.26,9.68-13.74,3.39-27.91,4.76-39,.63-5.06-12.44-7.39-13.25-.89-1.28,10.32-7.69,25.31-11.34,35.12a28.85,28.85,0,0,1-3,6.12c-.74,1.1-.57,0-1,1.15"/><path class="cls-1" d="M549.1,699.73c-.68-1.5.2.54-.18-.4a38.29,38.29,0,0,1-3.09-9.79c-1.74-11.45-3.83-22.42-1.25-33.57.08-.38.55-1.9.64-2.27.91-3.56-5.63-8-9.32-8.94-1.29-.34-7.85-1.3-8.86,1.88-3.09,9.74-4.38,11-3.92,21.15.93,20.8,30.51,66.82,49.64,76.54,11.54,5.86,24.86,6.36,37.49,4.91,13.25-1.51,16.85-5.92,27.83-13.69,16.06-11.36,25.44-29.69,29-48.72a117.22,117.22,0,0,0,1.61-22.75l-.46-52.66q-.66-76.12-1.8-152.24l-.5-34.89c-.06-4.13.26-8.49-.57-12.57-1.06-5.26-4.19-10.13-7.52-14.22-5.47-6.73-13-10.79-21.34-6-5.23,3-6.18,10.28-7.73,15.56-2.65,9,.9,19.73-4.27,28-4.29,6.91-11.44,7.63-18.81,7.64-6.69,0-14-.82-20.52.83-8.78,2.21-10.3,10.59-6.65,17.87,4.23,8.44,11.52,17.29,21.42,18.55,3.46.44-1.14-7.51-1.61-8.28-1.9-3.08-5.53-9-9.54-9.75a9.24,9.24,0,0,0-10.72,6.05c-2,5.73,2.62,11.24,1.52,17-.91,4.7-3.34,7.93-2.21,12.9,1.44,6.37,6.15,12.53,10.61,17.1,7.52,7.71,18.16,11.53,28.7,12.65h0a8.84,8.84,0,0,1,1.44,4.57c.77,25.61.63,51.27.93,76.9.13,10.67-.06,21.43.7,32.08.32,4.51,4.92,9.72,8,12.76,1.55,1.54,5.83,5.35,5.51.87h0c.13,1.87,0-1.59-.07-2.23-.06-2-.1-4-.14-6.08q-.16-8.46-.26-16.94-.26-21.39-.46-42.78c-.13-12.27-.23-24.55-.5-36.82-.08-3.54-.12-7.09-.49-10.61-1.1-10.48-8.64-23.74-18.59-28.22-4.06-1.83-8.73-1.45-13-2.36a47.4,47.4,0,0,1-8-2.42c-1.37-.56-2.63-1.28-4-1.9-.59-.32-1.16-.66-1.73-1q4.39,11.37,4.66,6.14c2.06-5.52,3.5-10.85,2-16.7-.7-2.8-2.18-5.77-1-8.65a7.37,7.37,0,0,1,8.23-4.25l-11.15-18c-4.14-.53-6.38-3.53-1.69,2.75s1.9,3.16,5.18-.27c2.35-2.45,5.48-3.19,8.7-3.5,6.59-.63,13.25,0,19.85-.23,6.36-.25,12.26-1.74,16.13-7.26,4.78-6.83,3.72-14.48,4.12-22.36.2-4.05,1.39-7.67,2.48-11.52.7-2.5,1.16-5.3,2.67-7.47a11.23,11.23,0,0,1,6.87-4.24c5.2-1.26,7.44,2.22,2.23-5-6.25-8.71-3-5.65-3.19-3-.12,1.58.08,3.36.1,4.92l.89,62.14q.92,63.32,1.45,126.63l.44,51.11a161,161,0,0,1-.34,17.16c-1.51,15.64-6.51,31.32-16.43,43.7-15,18.74-29.93,27.14-53.39,26.32-9.19-.33-28.89-25.87-35.76-32,.85.76-.36-1.17-.33-.35,0-.41,1,1.35.21.18"/><path class="cls-1" d="M343.77,438.74c8.62,26.18,33.6,48.32,62.42,46.71,12.46-.7,28.6-5.71,37.2-15.16,8-8.82,8.16-15,7.56-26.34-.36-6.62-19-13-18.63-5.66.45,8.36,1,12.11-3.8,19.44-5.65,8.67-17.58,12.72-27.26,14.77-20.77,4.4-33.92-13.48-39.72-31.09-1.94-5.91-20.62-11.33-17.77-2.67Z"/><path class="cls-1" d="M277.41,297.5c4.33,1-1.39,10.1-2.23,11.93l-4.91,10.66c-1.29,2.8,8.38,2.64,9.71-.26,2.71-5.88,5.85-11.72,8.18-17.76,1.68-4.35.58-7.64-4.23-8.76-2.1-.49-5.24-.38-7,1.05-1.38,1.13-1.69,2.64.47,3.14Z"/><path class="cls-1" d="M514,306.57c-11.37,11.72-7.19,31-4.47,45.41.94,5,9.91.67,9.06-3.81A161.55,161.55,0,0,1,516,329.45c-.44-6.33-.77-13.77,4-18.67,4.58-4.71-2.16-8.22-6-4.21Z"/><path class="cls-1" d="M511.65,330.39c-.85-3.11-2.12-7-1.06-10.21,1.31-4,5.58-4.79,9.24-5.21,8.83-1,17.92-.89,26.8-1.47q26.75-1.72,53.38-4.85c14.6-1.73,32.89-3.78,43.34-15.47,8.06-9,7.57-24.27-4-30.25-5.73-3-9.25,5.45-4,8.15,5.85,3,5.47,9.67,1.63,14.35-4.84,5.89-12.83,8.64-20,10.44-15.78,4-32.64,4.83-48.79,6.25-16.52,1.46-33.14,1.71-49.65,3.19-6.06.54-12.49,2.42-15.54,8.21s-1.69,12.76,0,18.79,10.36,4.33,8.64-1.92Z"/><path class="cls-1" d="M313.56,293c-11.55.19-21.65,4.92-30.73,11.8-.49.37-3.21,2.27-2.29,2.83s4.83-2.64,5.37-3.05c5.58-4.23,13.16-5.59,20-5.7,1.79,0,4-2,5.37-3.05.34-.26,3.18-2.84,2.28-2.83Z"/><path class="cls-1" d="M306.66,292.8c-14.62,2.45-24.72,13.81-36.36,21.92-2.06,1.43-.69,4.22.9,5.31a6.11,6.11,0,0,0,7-.15c10.34-7.2,19.4-17.73,32.37-19.9a3.33,3.33,0,0,0,2.63-4.7c-1.14-2.33-4.24-2.85-6.51-2.48Z"/><path class="cls-1" d="M479.06,310.74c2.69.34,5.37,4.74,6.82,6.79,2.65,3.76,5,7.72,7.51,11.58l15.54,24.14c1.53,2.38,11.18,3.07,8.9-.48Q507.65,337,497.47,321.14c-5.12-7.94-10.39-13.85-20.18-15.1-1.39-.17-4.24,0-4,2s4.4,2.56,5.73,2.73Z"/><path class="cls-1" d="M470.78,311.1a39.77,39.77,0,0,1,24.44,20.12c1.63,3.18,11.37,3.57,9.74.39a49.63,49.63,0,0,0-30.6-25.12c-1.59-.46-5.34-1.22-6.39.71s1.2,3.44,2.81,3.9Z"/><path class="cls-1" d="M306,239.78a31.11,31.11,0,0,0,23.48-18.18c2.45-5.78-6.7-7.06-8.69-2.34-2.81,6.65-8.15,11.28-15.33,12.49-5.76,1-5.9,9.11.54,8Z"/></svg>