<svg id="Layer_1" data-name="Layer 1" xmlns="http://www.w3.org/2000/svg" viewBox="0 0 859.94 880.89"><defs><style>.cls-1{fill:#fde000;}</style></defs><title>luxury</title><path class="cls-1" d="M383.33,9.68C320.35,26,262.53,55,206.43,98.32c-37.28,28.87-71.11,64.81-103.36,110-26.54,37.22-48.93,78.77-68.71,127.09-1.79,5.19-3.72,10.37-5.51,15.55-4.07,11.31-8.27,23.05-12,34.71C9.83,407.59,5.28,431.93,2,464.48-.44,488.31-1.75,513.88,4.8,539c3.1,12,8.68,26.93,24.53,35.28,2.48,1.3,4.34,4.25,5.17,6.41a655.78,655.78,0,0,0,67.74,127.53c24.39,35.71,51.41,64.37,82.83,87.56,28.6,21.1,59.68,36.44,89.1,49.9C315,864.41,354.66,874.93,395.39,878c43.62,3.24,86.14.87,126.39-7,42.31-8.36,79.38-21.17,113.08-39.25a430.57,430.57,0,0,0,99.23-72.29c23.09-22.54,41.83-44.58,57.41-67.33,14.88-21.75,28.11-47.24,40.45-77.84.76-2,1.58-4,2.48-6,9.37-23.91,16.26-44.36,19.64-66.32,4.34-27.87,5.44-58,3.38-94.55a529.49,529.49,0,0,0-33.15-158.2C801.84,230,774,181.27,739.26,140.37c-21.91-25.78-47.89-48.75-79.45-69.92s-66.5-36.79-99.72-50.91C535.21,9,511.37,2.76,487.18.39,453.9-2.85,419.92.24,383.33,9.68ZM507.44,42.3c21.85,5.11,43.42,14,64.23,22.61l1.51.57a373.41,373.41,0,0,1,99.65,60.92c32.8,27.51,60.23,62.36,84,106.65,24.67,45.94,41.62,95.33,51.68,151.21s11.3,105.42,3.86,151.94c-2.76,17.43-8.06,35.21-17,57.53-3.1,7.71-6.48,15.41-9.31,22-17.71,40.54-43.82,77.77-79.8,113.77a381.27,381.27,0,0,1-114.53,79.35c-34.39,15.34-73,25.42-114.53,30a424.07,424.07,0,0,1-103.3-1.23c-26.46-3.6-53.2-11.66-81.66-24.55-1.86-.79-3.79-1.66-5.72-2.52-.9-.36-1.72-.79-2.62-1.15a393.33,393.33,0,0,1-87.93-50c-27-20.52-50.65-45.58-72.57-76.69C94.59,641.76,73.23,603.31,58.2,565c-19.29-49.11-21.43-98.72-6.61-151.65A653,653,0,0,1,74.4,346a576.24,576.24,0,0,1,29.77-62.94c40.11-72.87,87.59-133.43,152.78-171C287.54,94.36,383.33,50.43,383.4,50.51,431.09,36.25,470.57,33.73,507.44,42.3Z"/><path class="cls-1" d="M650.75,421.41c-5.89-16.42-13-32.41-22.22-47.25A21,21,0,0,0,617,365.94c-3.71-.93-4.9.8-2.88,4,17.17,27.68,27.09,60.3,34.13,91.87q1.71,7.63,3.16,15.32c-2.2,2.79-4.37,5.6-6.53,8.4-1.88,2.52-3.86,5-5.79,7.44s-3.84,5-5.76,7.43l-.27.35-.21-2.75a682.49,682.49,0,0,0-10.93-81.3c-2.47-12.18-5.33-24.37-9.52-36.08-3.26-9.13-7-19.12-13.92-26.21-4.25-4.36-11.29-6.19-16.07-1.46a9.51,9.51,0,0,0-1.6,2.09c-21.09,13.26-39.51,30.17-56.79,48.2,11.71-25.55,29.16-48.59,53.81-61.22,2.41.34,4.82.7,7.22,1.1,4.09.69,9.5-.1,10-5.16.5-4.64-5-9-9.08-9.71a328.23,328.23,0,0,0-78.6-3.64,81.29,81.29,0,0,1,28.08-12.45c17.49-3.87,35.21-1.33,52.26,3.39,4,1.12,9.54-.41,10.05-5.16.53-5-5-8.59-9.09-9.71-20-5.53-41.33-8.23-61.82-3.69-21.82,4.83-40.42,17.5-55.64,33.54-6.63,7,6.18,14.43,12.27,13.34a300.75,300.75,0,0,1,64.92-4.5c-31.21,22.47-48.73,62.78-56.51,99.06-.55,2.54,15.7,11.84,17.26,10.1,23.59-26.38,47.5-53.81,76.25-74.8.31.53.62,1.06.91,1.61.84,1.57,1.6,3.19,2.32,4.82.37.83.7,1.66,1.06,2.49.12.29.21.5.29.67l.15.43a257.06,257.06,0,0,1,8.4,30.21,563,563,0,0,1,10.62,70.84c-33.07,37.94-71,74.29-118.47,92.94A164.19,164.19,0,0,1,413.29,588a134.16,134.16,0,0,1-68-27.1c-23-17.59-42-39.65-60.81-61.54a13.7,13.7,0,0,0-1.32-1.32c1.09-20.51,2.88-41,5.86-61.32s6.7-41.71,14.77-60.92c31.51,11.21,60.08,29.69,85.35,51.46,5.19,4.47,22,4.31,18.35-6.17-9.91-28.74-25.34-55.9-49.11-75.38a95.55,95.55,0,0,0-35.94-18.61,286.15,286.15,0,0,1,74.16-22.53,5.89,5.89,0,0,0,5.16-6.3c-.38-3.73-3.37-6.15-6.46-7.84-21.34-11.7-45-18.77-69.49-16.17-18.25,1.94-34.87,5.88-49.87,16.07-5.56-7.49-11.26-10.94-17.95-17.43a105.64,105.64,0,0,0-29-19.82C201.38,240,170.9,246.49,144,258c-9.2,3.92-5.77,20.26,3.09,22.48,21.31,5.36,42.89,11.85,62,22.9A142.69,142.69,0,0,1,253.57,343c3.59,4.92,11.68,5.76,16,1.45,4.93-4.93,3.25-12.17-.39-17.16-19.68-27-46.77-44.73-76.71-56.85a63.72,63.72,0,0,1,32.47,6.13,75.05,75.05,0,0,1,10.78,6.53q2.63,1.91,5.09,4c.29.26.91.82,1.16,1.06.75.72,1.49,1.45,2.22,2.2,7.41,7.59,13.65,16.26,20,24.76,3.62,4.89,11.65,5.78,16,1.45a10.16,10.16,0,0,0,2.56-4.18,9.53,9.53,0,0,0,.94-.62c14.56-11,31.06-19.91,49.4-22.19,11.61-1.45,23,.36,33.89,4a299,299,0,0,0-84,33.79c-4.86,2.89-3.69,7.46-.33,10.76a16.13,16.13,0,0,0,15.5,6.44,43.15,43.15,0,0,1,13.07-.81c.86.06,1.73.13,2.59.22.09,0,1.87.29,2.2.35,2.45.46,4.84,1.1,7.23,1.78l.88.28.91.34c1.08.46,2.18.87,3.26,1.35,1.95.87,3.85,1.83,5.73,2.84.1.09,2.2,1.32,2.52,1.52,1,.68,2.07,1.37,3.09,2.09q3.39,2.38,6.56,5.06c1,.87,2.66,2.37,4.46,4.18q3.15,3.15,6.05,6.53a118,118,0,0,1,9.91,13.33c1.31,2,2.55,4.12,3.75,6.21a294.12,294.12,0,0,0-68.44-33.74c-3.78-1.28-9-.15-11.35,3.14l-.12.16c-.07.11-.15.22-.22.34l0,0C279.73,379,274.74,401,271.05,422.41c-4.31,25-6.54,50.31-7.83,75.61-.16,3.08-.3,6.16-.44,9.24-7.36-10.33-14.67-20.77-22.09-31.27a439.28,439.28,0,0,1,10.89-45.2c5.08-16.94,11.28-33.9,20.63-49,2.77-4.47-13.76-15.68-16.28-11.62-18.66,30.13-26.85,67.26-32.88,101.73a611.44,611.44,0,0,0-8.31,137.84,438.19,438.19,0,0,0,10.41,76.41c1,4.09,5.13,7.16,8.59,9.15.82.47,9,4.11,8.19.54-10.46-44.66-12.68-91.16-10.54-136.86a633,633,0,0,1,6.6-67.28c1.11,2.83,2.25,5.64,3.43,8.45a325.5,325.5,0,0,0,17,34.3c1.15,2.08,2.36,4.13,3.58,6.17,0,7.14.2,14.27.6,21.4,1.41,25.71,4.57,51.36,8.35,76.83,4,27.21,8.82,54.41,15.36,81.15,1.55,6.37,21.29,7.76,19.46.26A889.58,889.58,0,0,1,282.94,573.7c-.05-.75-.08-1.51-.13-2.26A207,207,0,0,0,304.54,596a240.69,240.69,0,0,0,30.2,24.38c10.66,7.34,21.62,14.07,32.81,20.3a241.67,241.67,0,0,0,34.89,16.24,166.91,166.91,0,0,0,38,9.29c1.65.17,3.31.42,5,.54l5,.23,2.51.11a23.32,23.32,0,0,0,2.51,0l5-.16,2.52-.08,1.26,0,1.25-.13,5-.53,2.51-.29,1.26-.15c.42-.06.83-.15,1.24-.22,1.66-.3,3.31-.62,5-1,13.24-2.66,25.88-7.59,37.81-13.59,23.9-12.07,44.8-28.78,62.67-47.69,2.18-2.41,4.33-4.85,6.47-7.29s4.31-4.85,6.28-7.41l6-7.61c1-1.28,2-2.53,2.95-3.84l2.82-3.93c1.87-2.62,3.76-5.22,5.59-7.86l.28-.39c-2.11,25.33-8.92,50.15-14.35,74.91-5,23-9.92,46.09-15.15,69.07-1.43,6.29,2.06,13.36,8.17,15.68a10.33,10.33,0,0,0,13.84-7.21c4.73-20.79,9.14-41.65,13.7-62.48,6.3-28.78,13.92-57.49,16.47-86.93a327.73,327.73,0,0,0,.62-41.59l1.12-2.15c2.92-5.67,5.92-11.28,8.52-17.09,1.33-2.9,2.68-5.77,4-8.68l2-4.35c.65-1.44,1.21-2.94,1.83-4.41l1.11-2.82a475.68,475.68,0,0,1,6.38,98.9A384.55,384.55,0,0,1,650,657.37c-1.13,4.82,15.52,15,16.78,9.69,9.94-42.53,11.85-86.71,8.2-130.15C671.71,497.72,664,458.47,650.75,421.41ZM610.23,529.76l-2.91,3.61c-1,1.21-1.89,2.44-2.91,3.6l-5.94,7.08-2.93,3.56-1.47,1.78-1.53,1.72c-2,2.29-4,4.62-6,6.92l-3,3.47c-1,1.16-2.07,2.24-3.09,3.37l-6.17,6.74c-2,2.3-4.18,4.4-6.26,6.59l-6.28,6.56c-2.18,2.08-4.31,4.21-6.46,6.31l-3.19,3.19-3.29,3.06-6.56,6.13c-2.27,1.92-4.5,3.89-6.75,5.85-1.14,1-2.23,2-3.39,2.9L528.57,615l-3.48,2.77-1.74,1.39-1.8,1.28-7.2,5.16-7.45,4.71a173.82,173.82,0,0,1-31.65,14.86q-2.07.69-4.14,1.44l-1,.36-1.06.28-2.11.58L462.68,649l-1.06.3-1.07.22-2.15.45-4.33.9a20.25,20.25,0,0,1-2.18.37l-2.19.31-4.4.62c-1.48.17-3,.22-4.44.33l-4.48.28-4.48,0c-1.5,0-3,0-4.51-.09l-4.5-.41a85.49,85.49,0,0,1-9-1.28l-2.25-.41c-.74-.14-1.47-.35-2.21-.53-1.48-.36-2.95-.73-4.43-1.13-.73-.2-1.48-.37-2.2-.6l-2.17-.72-4.34-1.48c-2.88-1-5.67-2.3-8.49-3.48s-5.51-2.7-8.24-4.11-5.31-3.08-7.89-4.74a154,154,0,0,1-28-23.89c-8.47-8.91-16.11-18.51-23.78-28L297,553.29q-7.66-9.75-15.11-19.75c.06-4.77.18-9.55.33-14.32,33,37.92,70.46,76.07,121.49,86.11,56.32,11.08,112.47-11.16,156.59-45.3,18.48-14.3,35.24-30.62,51-47.85q.45,7.67.7,15.33Z"/><path class="cls-1" d="M772.48,406.27c-23.35-44.88-67.81-80.35-118.81-82.89A157.63,157.63,0,0,1,674,299.82c16.51-15.73,35.91-27.68,55.91-38.44,8.54-4.6,3.45-17.27-4.77-18.55-27.63-4.3-56.95-2.8-80,14.62a100.19,100.19,0,0,0-23.84,25.48c-6.63,10.22-11.27,21.62-16,32.78a11.06,11.06,0,0,0,3.59,13.57c3.71,2.6,10.22,2.38,12.27-2.4,4.45-10.42,8.79-21,14.72-30.69a86,86,0,0,1,19.83-21.86c10.69-8.6,23.42-12.51,36.62-13.69-30,20.13-55.77,45.59-70.16,80a11.07,11.07,0,0,0,3.59,13.57c3.68,2.58,10.26,2.4,12.27-2.4q2-4.86,4.4-9.53a20.5,20.5,0,0,0,6,.37c19.79-1.71,40.16,4.91,56.2,15.32a127.19,127.19,0,0,1,24.63,21,415.33,415.33,0,0,0-74.62-30c-4.9-1.43-12.12.52-12.56,6.45-.47,6.32,6.15,10.61,11.35,12.13a381.56,381.56,0,0,1,101.72,47.37c4.08,2.67,9.88,4.49,14.56,2.11C773.9,414.88,774.52,410.2,772.48,406.27Z"/><path class="cls-1" d="M221.51,361a364.73,364.73,0,0,0-42,15.13c17.28-12.73,37.82-20.23,59.7-18.36,5.35.46,10.6-3.71,9.21-9.35-1.52-6.2-8.38-9.57-14.19-10.06-49.46-4.24-93,29.61-115,71.7-4.76,9.15,12.18,18.49,19.28,13.84,29-19,60.45-34.21,93.74-43.94C247.13,375.63,232.75,357.73,221.51,361Z"/></svg>