<svg id="Layer_1" data-name="Layer 1" xmlns="http://www.w3.org/2000/svg" viewBox="0 0 859.94 880.89"><defs><style>.cls-1{fill:#fde000;}</style></defs><title>resilient-communities</title><path class="cls-1" d="M849.63,394.18C833.7,329.66,805.3,270.44,762.87,213c-28.27-38.19-63.44-72.85-107.7-105.89C618.73,79.91,578.06,57,530.77,36.71c-5.07-1.84-10.15-3.81-15.22-5.65-11.07-4.16-22.56-8.47-34-12.28-21.42-7.2-45.25-11.86-77.1-15.25-23.33-2.47-48.36-3.81-73,2.9C319.75,9.6,305.16,15.32,297,31.56c-1.27,2.54-4.16,4.44-6.27,5.29a633.18,633.18,0,0,0-124.83,69.39c-35,25-63,52.66-85.7,84.85-20.65,29.3-35.67,61.13-48.85,91.28C13,324.16,2.72,364.82-.31,406.54c-3.18,44.68-.85,88.24,6.9,129.46C14.77,579.34,27.32,617.32,45,651.84a440.55,440.55,0,0,0,70.76,101.65c22.06,23.65,43.63,42.85,65.9,58.81,21.29,15.24,46.24,28.8,76.19,41.43q2.86,1.17,5.92,2.54c23.4,9.6,43.42,16.66,64.92,20.12,27.27,4.45,56.74,5.58,92.54,3.46a498.25,498.25,0,0,0,154.85-34c57.94-23,105.58-51.53,145.62-87.11,25.23-22.45,47.71-49.06,68.43-81.39s36-68.12,49.84-102.15c10.36-25.48,16.42-49.91,18.74-74.69C861.9,466.47,858.86,431.67,849.63,394.18ZM817.7,521.32c-5,22.38-13.67,44.47-22.13,65.79l-.56,1.55a386.08,386.08,0,0,1-59.63,102.08c-26.92,33.6-61,61.69-104.38,86-45,25.27-93.32,42.64-148,52.94s-103.18,11.58-148.71,3.95c-17.06-2.82-34.47-8.25-56.32-17.43-7.54-3.18-15.08-6.64-21.5-9.53-39.68-18.14-76.12-44.9-111.36-81.75A391.45,391.45,0,0,1,67.42,607.65c-15-35.22-24.88-74.75-29.32-117.32a454,454,0,0,1,1.2-105.82c3.52-27.1,11.42-54.49,24-83.65C64.11,299,65,297,65.8,295c.35-.91.77-1.76,1.13-2.68a407.61,407.61,0,0,1,48.91-90.07c20.09-27.61,44.62-51.89,75.06-74.34,40-29.5,77.68-51.39,115.17-66.78,48.07-19.76,96.63-22,148.44-6.77a619.58,619.58,0,0,1,65.9,23.36,556,556,0,0,1,61.6,30.5c71.33,41.08,130.6,89.72,167.4,156.5,17.33,31.34,60.33,129.46,60.26,129.53C823.62,443.1,826.09,483.55,817.7,521.32Z"/><path class="cls-1" d="M429.12,471.3c14,2.33,35.76,3,43.58-11.48a35.39,35.39,0,0,0,13-28.05c-.17-13.13-2.55-28.48-9.85-39.67-8.77-13.44-24-17-39.21-16.21-16.23.88-32.38,6.06-41.75,20.29-9.19,13.94-9.13,30.67-2.89,45.77C398.61,458.06,412,468.47,429.12,471.3Zm-2.51-73.07Zm-.32.44h0l0,0Zm26.58,2.56c5.94,6.08,8,15.2,9.32,23.29,1.22,7.34,3.33,18.88-1.9,23.62a9.1,9.1,0,0,1-3.33,1.52,18.37,18.37,0,0,1-4.65.32,31.28,31.28,0,0,1-14.64-5.16c-8.38-5.39-15.15-13.55-16.17-23.75-.53-5.23.54-11,2.06-16a35.58,35.58,0,0,1,2.37-5.75l.4-.65a3,3,0,0,0,.72-.13,13.76,13.76,0,0,0,6-3.79C440.27,394.55,447.62,395.85,452.87,401.23Z"/><path class="cls-1" d="M463.66,532.55c-3.17-6.16-10.25-20.84-16-24.92a22.48,22.48,0,0,0-2.33-1.44c.14-2.64.26-5.28.41-7.91.28-5-5.58-9.63-9.41-11.86a22.62,22.62,0,0,0-4.81-2c-3.21-1.34-8.64-2.87-8.57,1.06q.17,9,.28,17.95c-16.37,3-25.95,15.31-34.77,28.45-.74,1.1-1.48,2.22-2.23,3.36-9.42,8-23.32,12.62-31.7,21.74-2.66,2.89-.14,5.39,2.84,6.29,4.6,1.4,10.07.49,14.42-1.32,11.52-4.76,25-5.51,32.17-15.51,1.06-1.48,2.08-3,3.1-4.54,5.32-4.49,11.44-16,17.07-20.1,0,3.72.92,24.66.95,28.38-1.14,36.07-6.65,55-5.86,91.08a8.94,8.94,0,0,0-3.27,4c-.47,1.11-.95,2.22-1.44,3.31a10.73,10.73,0,0,0-3.38,3.94c-6.81,13.62-10.82,29.94-19.7,42.31-8.33,11.59,12.51,19.54,20.06,10.59,8.69-10.3,16.31-26.28,22.73-38.13,7,11.67,13.51,25.06,19.51,37.29,1.9,3.86,13.65,2.54,20.34.11a6.66,6.66,0,0,0,4-8.64,5.35,5.35,0,0,0-1.21-1.85c.08-1.31-.75-2.14-2.13-2.65-8-15.5-19.3-30.09-29-44.66a4.43,4.43,0,0,0-2.54-1.69c.45-33.31.56-63.75.32-97.06.06-2.11-1.14-11-1.07-13.1,5.77,11.82,21.19,27,27,38.82,2,4.17,11.78,2.54,15.09,1.59,3.48-1,13.21-6.14,10.57-10.31C485.66,550.2,471.67,548.1,463.66,532.55Z"/><path class="cls-1" d="M581,393.55c-14.49,47.45-29.4,94.79-43.42,142.39-3.32,11.3-6.42,22.67-8.82,34.21-2.31,11.15-4.95,23.22-4,34.67,1.91,24,32.4,21.79,49.56,22.06a629.28,629.28,0,0,0,75.31-3.19c12.35-1.29,24.68-2.93,36.93-5,9.94-1.68,21.46-5.37,25.71-15.52,4.42-10.57-1.79-23.64-4.86-33.86-3.37-11.26-6.86-22.48-10.07-33.78-6.35-22.36-10.07-44.81-13.7-67.72S673.45,422,656.7,405.06c-14.56-14.69-34.68-23.34-55.54-20.38-5,.7-12.64,3.18-13.51,9.11-.83,5.66,6.62,7.6,10.85,7,6.4-.9,11.24-.46,18.21,2.3a52.57,52.57,0,0,1,17.2,11.55c13.26,13.12,19.84,30,23.48,48,4.18,20.67,6.09,41.62,11.18,62.14,5.13,20.74,11.86,41,17.78,61.54,1.23,4.25,3.41,9.33,3,13.81a6.45,6.45,0,0,1-1.05,3,2.18,2.18,0,0,1,1-.76c-3.66.5,2.47.06-1.21.33-8.91.67-20.17,3.1-30,4.22a595.68,595.68,0,0,1-66.76,3.9c-10.6,0-21.44.08-32-1-2.22-.21-4.15-.38-6.22-1.88-2.9-2.09-4-5.58-4.18-9.06-.68-10,2.17-21.15,4.2-30.9,2.21-10.63,5-21.12,8-31.54,14.1-48.52,29.44-96.72,44.2-145,1.73-5.68-7.22-7.31-10.86-7-5.64.48-11.77,3.41-13.51,9.12Z"/><path class="cls-1" d="M593.25,611.92,559.37,696l15.72,18.39c6.75-29.11,13.71-60.12,33.28-83.64,4.23-5.08-12.24-23.15-14.65-20.26C573.65,634.6,566.3,666.13,559.37,696c-1,4.53,4.24,10.86,6.92,14,1.21,1.41,7.25,8.24,8.8,4.41L609,630.31c1.6-4-4.61-11.29-6.92-14-1.21-1.41-7.25-8.24-8.8-4.41Z"/><path class="cls-1" d="M630.76,620.63l7.62,47.74,3.74,23.39c1.11,7,.88,14.6,9.06,16.68,6.66,1.69,17.18-1.79,19.11-9,4.13-15.5.17-31.82-2.54-47.23-2.17-12.3-3-28.1-15-35.08-5-2.89-12.75-.71-17.13,2.43-3.68,2.64-6.52,7.8-1.48,10.71,4,2.33,5.42,7.62,6.48,11.85,1.56,6.26,2.43,12.73,3.55,19.08,2.42,13.74,5.66,27.67,2,41.48l19.1-9-.88-.22,4,2.12c-1.22-1.17-1.32-5.16-1.62-7L665,677.78l-3.42-21.44-6.85-42.87c-.87-5.44-10.57-4.35-14-3.31-4.51,1.35-10.8,4.91-9.91,10.47Z"/><path class="cls-1" d="M574.14,287.07c-12.46,20.15-21.42,43.71-13.93,67.32,7,21.94,27.63,35.44,50.49,33.89,21-1.43,40.12-14.5,47.83-34.25,8.16-20.91,6.14-47-7.2-65.46-16.75-23.18-52.8-24.79-71.84-3.75-10.19,11.26,10.56,24,19.52,14.06,9.6-10.62,24.51-10.79,32.42,1.39,7.77,12,9.09,29.35,4.8,42.75a37.32,37.32,0,0,1-11.62,17.54,35,35,0,0,1-14.42,6.37,49.87,49.87,0,0,1-5.33.37c-2.6.07-1.23-.05-.63,0-.88-.08-1.76-.2-2.62-.34s-1.73-.31-2.58-.52c.59.14,1.81.73-.55-.21l-1.83-.73c-.42-.18-2.62-1.32-1.32-.57-5.84-3.35-9.76-9.44-11.63-16-5.3-18.51,3.76-37,13.28-52.36,3.38-5.47-1.38-12.07-6.46-14.2-5.88-2.46-13-.85-16.38,4.67Z"/><path class="cls-1" d="M671.86,447.91c13.52-1.17,20.28,14,26.41,23.72l27.25,43c3,4.73,10.44,7.87,15.37,4.3,5.37-3.89,3.68-11.25.7-15.95-10.43-16.47-20.8-33-31.3-49.4-9.47-14.8-23.57-30.71-43-29-14.79,1.29-8,24.45,4.56,23.36Z"/><path class="cls-1" d="M571.46,438a149.89,149.89,0,0,0-63.17,26.4c-3.44,2.51-6.66,7.68-1.55,10.38s12.81.56,17.09-2.56A107.27,107.27,0,0,1,569,452.71c4.63-.8,12.59-3.49,13.32-9.09s-7.12-6.28-10.82-5.64Z"/><path class="cls-1" d="M162.47,544.41c-.34,0-.67,0-1,0-4.16-.33-8.39-2.84-10.75-4.88-1.78-1.54-2.53-3.67-3.27-5.72a24.12,24.12,0,0,0-.93-2.38l-.13-.28V514.8c.26-2,.53-3.9.8-5.85.58-4.15,1.18-8.43,1.55-12.64,2.32-26.75,7.58-50,16.06-71.17,11.14-27.73,22.38-47.92,36.44-65.44l.68-.88c1.54-2,3.47-4.54,6.8-4.54a7.91,7.91,0,0,1,2.88.58,5.69,5.69,0,0,1,3.38,3c1,2.27-.05,4.8-.88,6.83L214,365c-4.09,10.13-8.07,19.46-12.18,28.54-11.16,24.63-17,49.78-22.43,80a311.16,311.16,0,0,0-4.66,55.85,23.75,23.75,0,0,1-1.95,8.67C171.24,541.86,167.11,544.41,162.47,544.41Z"/><path class="cls-1" d="M208.73,355.64a6.45,6.45,0,0,1,2.38.49c4.51,1.76,2.73,5.54,1.59,8.39q-5.79,14.31-12.16,28.48c-11.78,26-17.66,53-22.53,80.29a314.76,314.76,0,0,0-4.68,56.09,22.84,22.84,0,0,1-1.86,8.18c-1.37,3.49-5.14,5.49-9,5.49l-.9,0a19,19,0,0,1-10-4.56c-2.17-1.88-2.64-5.05-3.86-7.65V515c.8-6.18,1.82-12.35,2.35-18.54,2.09-24.08,6.77-47.86,16-70.78,9.11-22.7,20-44.91,36.23-65.1,1.67-2.08,3.33-4.91,6.42-4.91m0-2.72h0c-4,0-6.25,2.93-7.88,5.08l-.66.85c-14.15,17.63-25.45,37.92-36.64,65.79-8.54,21.26-13.82,44.66-16.16,71.55-.36,4.17-1,8.44-1.54,12.57-.26,1.92-.54,3.9-.8,5.86l0,.17v16.63l.26.54c.32.68.59,1.45.88,2.26.76,2.12,1.61,4.53,3.66,6.3,2.63,2.28,7,4.85,11.53,5.21.36,0,.74,0,1.11,0,5.2,0,9.83-2.9,11.53-7.22a24.78,24.78,0,0,0,2.05-9.17,310.43,310.43,0,0,1,4.64-55.62c5.37-30.08,11.22-55.14,22.33-79.64,4.12-9.09,8.11-18.44,12.2-28.59l.15-.37c.87-2.14,2.07-5.09.87-7.88a6.94,6.94,0,0,0-4.14-3.68,9.05,9.05,0,0,0-3.37-.68Z"/><path class="cls-1" d="M328.2,704.08a19.93,19.93,0,0,1-13.46-5.1c-8.87-8.21-17.73-16.66-26.3-24.83l-13.67-13q-5.56-5.26-11.17-10.5c-5-4.64-10.09-9.44-15.08-14.2-1.62-1.55-3.15-3.19-4.62-4.77s-2.87-3.1-4.39-4.56c-1-1-2.25-2-3.41-2.87a38.9,38.9,0,0,1-4.48-3.93,41.06,41.06,0,0,1-4.14-5.66c-.25-.4-.51-.8-.78-1.21-.72,1.14-1.46,2.26-2.17,3.36a88,88,0,0,0-6.48,11c-7.15,15.39-14,31.17-20.66,46.43L196,677.49a32.44,32.44,0,0,0-1.66,5.46c-.24,1-.49,2-.79,3-2.07,7.08-6.84,10.68-14.16,10.68a27,27,0,0,1-4.12-.34,13.45,13.45,0,0,1-9.07-5.47,12.87,12.87,0,0,1-2.06-9.93c2.07-10.84,6.6-21.66,14.24-34,4.82-7.79,9.37-15,13.91-22a24.07,24.07,0,0,1,4.39-5.16q2.84-2.46,5.65-5c6.16-5.43,12.53-11,19.32-16.15,4.53-3.41,6-7,5.2-12.43q-1-6.21-1.94-12.43c-2.5-16-5.08-32.52-7.39-48.8a195.51,195.51,0,0,1-1.43-21v-.39c-.26-8-.44-16.15-.63-24-.2-9.13-.42-18.57-.75-27.85-.24-6.86-.59-13.84-.93-20.59-.54-10.56-1.09-21.49-1.23-32.25a133.23,133.23,0,0,1,2.63-26.8,77.81,77.81,0,0,1,4.41-13.56c.79-2,1.61-4.09,2.33-6.13.35-1,.63-2,.93-3.13l.14-.52-.21-.12a5,5,0,0,0-1.35-.62c-13-2.22-19.65-10-24.86-18.14-6.87-10.69-9-22.64-6.43-36.55.81-4.39,1.48-8.88,2.13-13.22.55-3.69,1.12-7.5,1.77-11.24a19.4,19.4,0,0,1,1.24-3.87,21.91,21.91,0,0,0,1-2.86c.11-.47.25-.95.38-1.44.45-1.63.92-3.31.43-4.38-4.19-9.17.85-16.84,5.89-23.31a49.47,49.47,0,0,1,22.79-16.06A48,48,0,0,1,266.08,220c16.8,8.84,25.43,21.49,25.67,37.6a58.87,58.87,0,0,1-3.49,19.44c-5.93,17.56-15.6,35.55-29.57,55-6.35,8.87-14.26,14.16-24.1,16.14q5.06,6.69,10.09,13.31c8.3,10.94,16.89,22.26,25.12,33.43q4.08,5.55,8.18,11.09c13.54,18.34,27.55,37.31,40.6,56.3A212.76,212.76,0,0,1,346.05,517a33.48,33.48,0,0,1,1.76,9.13c.11,3-1.05,7.13-7.23,10.17a12,12,0,0,1-5.36,1.3,15.73,15.73,0,0,1-7.21-2c-7.29-3.71-11.21-9.55-14.36-15.3-1.71-3.13-3.22-6.37-4.68-9.5-1.16-2.49-2.36-5.06-3.65-7.53a424,424,0,0,0-30.8-50.18c-3.53-5-7.24-10-10.83-14.91-10.87-14.78-22.12-30.07-30.22-46.47A4.35,4.35,0,0,0,233,391l.6,9.89c.55,9.24,1.13,18.79,1.75,28.18.2,3.08.48,6.22.75,9.25.34,3.75.68,7.62.89,11.45l.33,5.82c.48,8.3,1,16.9.9,25.37-.2,20.41,2.29,42.49,7.84,69.48,4,19.31,5.8,36.44,5.62,52.37,0,3.6,1.18,6.09,4.24,8.58,20,16.34,40,33,57.71,47.67l1.1.92c8.14,6.76,16.55,13.76,24.5,20.9a13.46,13.46,0,0,1,4.88,10.71,12.1,12.1,0,0,1-5.2,9.23A18.31,18.31,0,0,1,328.2,704.08ZM213,268.86a3,3,0,0,0-.27,1q.18,4.11.31,8.24c.27,7.47.54,15.18,1.27,22.72.81,8.46,3.69,15.3,8.81,20.93,2.09,2.3,3.61,3.29,5.08,3.29s3-.8,5.28-2.59c15.92-12.32,27.19-28.33,34.46-48.92,2.67-7.57,2.88-14.83.62-21.59-1.76-5.29-7.34-9.76-12.19-9.76a6.59,6.59,0,0,0-1.6.17c-7,1.58-12.16,3.7-15.24,6.31a138.15,138.15,0,0,0-13.82,14.15c-1.88,2.11-3.82,4.3-5.83,6.45l-.48.52Z"/><path class="cls-1" d="M242.6,215.23a48.72,48.72,0,0,1,22.85,6c16.23,8.55,24.71,20.86,24.94,36.42a58.07,58.07,0,0,1-3.42,19C280.44,296,270,314,257.59,331.27c-5.75,8-13.68,14.25-25.43,16,12.32,16.33,24.63,32.33,36.54,48.51,16.46,22.35,33.13,44.62,48.76,67.36a210.85,210.85,0,0,1,27.3,54.33,32.75,32.75,0,0,1,1.69,8.76c.15,3.91-2.29,6.84-6.47,8.89a10.56,10.56,0,0,1-4.76,1.17,14.38,14.38,0,0,1-6.59-1.88c-6.94-3.53-10.65-9-13.79-14.74-3-5.57-5.4-11.39-8.31-17a427.94,427.94,0,0,0-30.9-50.33c-14.23-20.13-30.23-39.51-40.94-61.2a14,14,0,0,0-1.54-2.06l-1.64.22c.82,13.29,1.58,26.59,2.46,39.88.46,6.9,1.27,13.78,1.64,20.68.57,10.36,1.33,20.74,1.23,31.1-.23,23.49,3.12,46.69,7.87,69.77,3.54,17.26,5.79,34.58,5.59,52.08-.05,3.89,1.27,6.83,4.74,9.65q29,23.69,57.7,47.67c8.63,7.17,17.28,14.35,25.57,21.78,6.14,5.51,5.76,13.47-.22,17.83a16.88,16.88,0,0,1-9.89,3A18.52,18.52,0,0,1,315.66,698c-13.48-12.48-26.63-25.21-40-37.81-8.73-8.25-17.57-16.42-26.25-24.7-3.15-3-5.87-6.31-9-9.32-2.46-2.36-5.56-4.29-7.83-6.74s-3.72-5.21-6-8.45c-3.36,5.49-7.25,10.69-9.85,16.28-7.65,16.48-14.85,33.1-22.08,49.71-1.21,2.78-1.66,5.77-2.5,8.66q-2.85,9.71-12.86,9.7a25.58,25.58,0,0,1-3.91-.33c-7-1.09-11.27-7.13-10-13.79,2.27-11.87,7.47-22.91,14.06-33.57q6.84-11.05,13.89-22a23,23,0,0,1,4.14-4.87c8.18-7.11,16.11-14.45,24.89-21,5.35-4,6.56-8.37,5.73-13.72-3.17-20.4-6.43-40.79-9.32-61.22a195,195,0,0,1-1.43-21.19c-.56-17.3-.77-34.6-1.38-51.89-.61-17.6-1.94-35.2-2.16-52.81a132.72,132.72,0,0,1,2.61-26.52c1.27-6.62,4.41-13,6.68-19.5.54-1.55.92-3.13,1.4-4.78a13.23,13.23,0,0,0-2.94-1.4c-12.2-2.08-18.6-9.23-23.94-17.54-7.27-11.3-8.51-23.18-6.24-35.57,1.49-8.13,2.49-16.33,3.9-24.47.39-2.25,1.67-4.4,2.2-6.64s1.6-4.8.73-6.7c-3.83-8.4.69-15.47,5.72-21.92a51,51,0,0,1,38.6-18.59m-23.71,53.13-6.83-1a9.8,9.8,0,0,0-.69,2.6c.45,10.35.59,20.73,1.58,31,.75,7.76,3.29,15.25,9.16,21.72,2.27,2.5,4.1,3.73,6.09,3.73,1.76,0,3.66-1,6.11-2.87C252,309.85,262.6,292.78,269.22,274c2.57-7.29,3.14-14.95.63-22.47-1.9-5.72-7.92-10.69-13.48-10.69a8.07,8.07,0,0,0-1.9.2c-5.66,1.27-11.92,3.29-15.82,6.6-7.28,6.16-13,13.5-19.76,20.71m23.71-55.85a51.32,51.32,0,0,0-17.34,3.14,50.75,50.75,0,0,0-23.4,16.5c-5.29,6.79-10.56,14.85-6.05,24.72.28.61-.18,2.25-.51,3.45-.14.5-.28,1-.39,1.49a21.09,21.09,0,0,1-.93,2.67,20.67,20.67,0,0,0-1.31,4.13c-.65,3.77-1.22,7.58-1.77,11.28-.65,4.33-1.32,8.81-2.12,13.17-2.62,14.26-.45,26.54,6.62,37.54,5.38,8.37,12.23,16.43,25.78,18.75a.73.73,0,0,1,.19.07c-.25.88-.48,1.71-.77,2.52-.7,2-1.52,4.08-2.3,6.08a78.61,78.61,0,0,0-4.49,13.8,133.83,133.83,0,0,0-2.65,27.08c.14,10.79.69,21.73,1.23,32.31.34,6.74.69,13.71.93,20.56.33,9.27.55,18.71.75,27.84.19,7.88.37,16,.63,24v.4a195.71,195.71,0,0,0,1.44,21.09c2.31,16.29,4.89,32.83,7.39,48.81q1,6.22,1.94,12.44c.76,4.91-.55,8-4.67,11.13-6.83,5.13-13.22,10.77-19.4,16.22l-5.64,4.95a25.38,25.38,0,0,0-4.64,5.44c-4.56,7.06-9.11,14.28-13.92,22.07-7.74,12.51-12.32,23.47-14.42,34.49a14.24,14.24,0,0,0,2.27,11,14.83,14.83,0,0,0,10,6,28.53,28.53,0,0,0,4.33.36c7.89,0,13.24-4,15.47-11.66.3-1,.56-2.09.8-3.1a32.94,32.94,0,0,1,1.58-5.24l1.43-3.28c6.63-15.24,13.49-31,20.63-46.36a88.24,88.24,0,0,1,6.38-10.82l1.05-1.6a38.14,38.14,0,0,0,3.91,5.28,40,40,0,0,0,4.64,4.08c1.19.94,2.31,1.83,3.3,2.78,1.5,1.43,2.88,2.92,4.34,4.5s3,3.25,4.68,4.83c5,4.77,10.13,9.57,15.09,14.22,3.67,3.43,7.46,7,11.17,10.49,4.56,4.32,9.19,8.72,13.66,13,8.57,8.17,17.44,16.62,26.31,24.84a21.34,21.34,0,0,0,14.39,5.46,19.68,19.68,0,0,0,11.49-3.54,13.47,13.47,0,0,0,5.76-10.26,14.81,14.81,0,0,0-5.33-11.8c-8-7.17-16.44-14.2-24.61-21l-1-.85c-21.29-17.72-39.07-32.47-57.72-47.68C254,608.09,253,606,253,602.8c.18-16-1.66-33.25-5.65-52.65-5.53-26.9-8-48.88-7.81-69.2.08-8.51-.42-17.12-.9-25.45l-.33-5.83c-.21-3.85-.56-7.73-.89-11.49-.27-3-.55-6.16-.75-9.22-.62-9.4-1.2-19-1.76-28.21l-.22-3.66c7.88,14.7,18,28.5,27.89,41.89,3.58,4.87,7.29,9.9,10.81,14.89a423.9,423.9,0,0,1,30.71,50c1.27,2.46,2.46,5,3.61,7.49,1.47,3.15,3,6.41,4.73,9.57,3.25,5.95,7.31,12,14.93,15.87a17.07,17.07,0,0,0,7.83,2.17,13.22,13.22,0,0,0,5.95-1.44c6.84-3.36,8.13-8.07,8-11.44a34.6,34.6,0,0,0-1.83-9.5,213.69,213.69,0,0,0-27.64-55c-13.07-19-27.09-38-40.65-56.36l-8.16-11.06c-8.24-11.19-16.83-22.52-25.14-33.47q-4.4-5.78-8.8-11.61c9.23-2.35,16.73-7.68,22.85-16.2,14-19.57,23.77-37.68,29.74-55.36a60.35,60.35,0,0,0,3.57-19.9,39.83,39.83,0,0,0-6.95-22.34c-4.42-6.45-11-12-19.44-16.45a51.66,51.66,0,0,0-24.12-6.3Zm-22.7,58.75,1-1c2-2.17,4-4.36,5.84-6.47a136.72,136.72,0,0,1,13.69-14c2.91-2.47,7.84-4.49,14.65-6a5.78,5.78,0,0,1,1.31-.14c4.24,0,9.33,4.12,10.9,8.83,2.16,6.46,2,13.43-.62,20.71-7.17,20.34-18.29,36.14-34,48.3-2,1.54-3.46,2.3-4.45,2.3-.7,0-1.79-.33-4.07-2.84-4.91-5.41-7.68-12-8.47-20.15-.72-7.49-1-15.19-1.26-22.63-.09-2.52-.18-5.12-.29-7.69l.59.09,3.79.56,1.41.21Z"/></svg>