<svg id="Layer_1" data-name="Layer 1" xmlns="http://www.w3.org/2000/svg" viewBox="0 0 876.93 880.89"><defs><style>.cls-1{fill:#fde000;}</style></defs><title>travelers-2</title><path class="cls-1" d="M47.49,670.92C34.79,648.67,25,629.5,18.62,608.24c-8.15-27-13.29-56.74-16.18-93.42a527.13,527.13,0,0,1,12-162.62c14.72-62.47,36.25-115.39,65.81-161.77,18.66-29.27,41.83-56.28,70.86-82.55s62.29-47.47,94-67C268.77,26.28,292,16.12,316.15,9.83,349.33,1.18,384.07-1.38,422.36,2,488.19,7.86,550.58,27.16,613.1,61c41.62,22.53,80.67,52.73,119.38,92.33,31.85,32.58,60.21,70.2,86.68,115q3.81,7.29,7.68,14.55c5.63,10.61,11.45,21.58,16.81,32.56,10.08,20.62,18,44,25.72,75.79,5.64,23.27,10.42,48.4,7.22,74.46-1.52,12.44-5.18,28.13-20.06,39.09-2.29,1.69-3.76,4.93-4.33,7.19A670.1,670.1,0,0,1,801,649.76c-19.8,39.49-43.32,72.4-71.9,100.61-26,25.67-55.38,46-83.27,64.26-38.77,25.31-77.43,42.33-118.18,52-43.65,10.41-87,15.05-128.71,13.8-44-1.31-83.09-8-119.64-20.36a429.16,429.16,0,0,1-110.09-55.57c-26.38-18.64-48.33-37.43-67.12-57.44-18-19.13-34.78-42.25-51.39-70.66Q49.07,673.7,47.49,670.92ZM741.37,227.65C691,161.83,633,114.47,563.86,82.85c-47.45-21.71-92-34.93-136.07-40.43-50.2-6.25-90.4-2.35-126.51,12.29-21.41,8.67-42,21-61.84,33l-1.47.88a404.94,404.94,0,0,0-92.76,76.79c-29.35,32.72-52.39,71.9-70.42,119.76C56.08,334.8,45.7,386.73,43.05,443.9c-2.65,57,2.8,106.61,16.65,151.65,5.2,16.89,12.91,33.67,25,54.38,4.21,7.21,8.63,14.33,12.39,20.35,23.35,37.35,54.76,70,96,99.93a376.64,376.64,0,0,0,126.51,60c36.88,9.58,77.2,13.25,119.83,10.89A445.49,445.49,0,0,0,543.7,822.86c26.29-7.93,52.2-20.32,79.21-37.87,1.81-1.17,3.65-2.32,5.48-3.47l2.53-1.6a418.42,418.42,0,0,0,82.13-64.07c24.44-24.75,45-53.56,63-88.08,23.55-45.33,39.88-87.09,49.94-127.64,12.88-52,8.36-101.6-13.82-151.74A634.38,634.38,0,0,0,780,285.28a562.38,562.38,0,0,0-38.59-57.63Z"/><path class="cls-1" d="M467.88,541.25c-9.13-32.52-14.11-59.46-15.6-84.37-.62-10.52-2-21-3.28-31.2-.31-2.39-.61-4.77-.91-7.16-.61-4.77-1.34-9.4-2.06-14-.53-3.71-1.21-7.54-1.74-11.25-1.62-11.52-3.11-23.19-4.59-34.59l-.58-4.5,1.17-27c-3.94-4.54,1.52-27.66-2.42-32.2,11.11-3.73,20-10.91,26.67-22,15.6-25.32,26-48.4,31.78-70.74a76.73,76.73,0,0,0,2.66-24.8,48.92,48.92,0,0,0-10.46-26.82c-6-7.6-14.49-13.82-25.39-18.53a64.53,64.53,0,0,0-30.64-5.86,61.16,61.16,0,0,0-21,5.37,63,63,0,0,0-27.31,22.26c-5.93,8.85-11.76,19.16-5.31,30.88.46.77-.07,2.81-.36,4.3-.09.68-.32,1.23-.4,1.91a16.52,16.52,0,0,1-1,3.41,32.48,32.48,0,0,0-1.24,5.17c-.46,4.71-.8,9.42-1.15,14-.42,5.38-.83,10.9-1.51,16.43-1.95,17.79,1.78,32.64,11.39,45.61,7.38,9.78,16.47,19.16,33.31,20.78.13,0,.13,0,.27.12a20.94,20.94,0,0,1-.71,3.12c-.75,2.6-1.51,5.19-2.27,7.65A84.82,84.82,0,0,0,411,324.71a155.66,155.66,0,0,0-.84,33.5c1.08,13.3,2.69,26.69,4.28,39.69,1,8.22,2,16.85,3,25.2,1.21,11.42,2.3,23,3.35,34.14,1,9.7,1.8,19.67,2.89,29.49l0,.54a244,244,0,0,0,3.57,25.83c4.22,19.9,8.84,39.9,13.3,59.39m53.86-206.22M429.58,260.92c-2.27,2-4.07,3.1-5.26,3.18-.8.06-2.16-.25-5.31-3.1-6.46-6.23-10.49-14.11-12.13-24-1.58-9.12-2.52-18.55-3.57-27.71-.35-3.05-.71-6.23-1.06-9.42l.67.09,4.71.33,2,.26,1.1-1.41q3.51-4.27,6.63-8.5a173.31,173.31,0,0,1,15.54-18.49c3.38-3.31,9.2-6.13,17.44-8.72a6.75,6.75,0,0,1,1.59-.25c5.19-.37,11.8,4.25,14.22,10,3.22,7.8,3.56,16.34,1,25.48C460.15,224.24,447.82,244.65,429.58,260.92Z"/><path class="cls-1" d="M297.79,448.18c28.33-17.32,46.15-24.63,67.58-43,28.25-24,47.48-45.1,62.52-68.6.29-.38.46-.72.76-1.1,1.89-2.75,4.41-6.56,2.84-11.23a18,18,0,0,0-2.17-3.92,8.9,8.9,0,0,0-5.91-3.36c-3.76-.29-6.7,2.25-8.89,4.11l-.34.26c-10.27,8.8-19.58,17.14-28.58,25.52-24.37,22.55-51.29,39.2-84.33,57.35-20.22,11-18.36,13.29-40.16,20.48a30.42,30.42,0,0,0-9.94,6c-4.38,3.72-6,10.31-3.92,16.38l.42,1.26c2.17,5.19,7,9.35,10.62,11.49C258.29,459.88,267.1,466.93,297.79,448.18Z"/><path class="cls-1" d="M440.13,548,431,549.64a33.71,33.71,0,0,0-8.36,2.72c-9.29,4.51-18.72,9.25-28.84,14.35-16.13,8.31-28,16.86-37.25,27.18a17.19,17.19,0,0,0-4.6,13,18.92,18.92,0,0,0,6.62,12.76,35.55,35.55,0,0,0,4.35,3.11c8.33,5,16.48,4.22,23.79-2.42a37.49,37.49,0,0,0,2.81-2.83,25.31,25.31,0,0,1,5-4.43l3.56-2.52c16.72-11.87,34.06-24,51.42-35.6"/><path class="cls-1" d="M441.7,552.06c8.81,31.69,19.19,63,30.8,93.74,5.73,15.21,11.79,30.31,18.29,45.21q4.71,10.82,9.77,21.45c2.4,5,4.87,13.68,10,16.56,4.74,2.64,9.42-1.19,11.34-5.43,3-6.65,2.46-15.12,2.06-22.23-.81-14.53-3.92-28.89-7.73-42.89-8.29-30.41-19.89-60-30.16-89.74-6.44-18.69-13.3-37.35-22.3-55-2.06-4-6.58-14.07-12.87-10.4-5.29,3.09-3.14,11.54-1.65,16.08,1,3.05,5.83,1.74,4.82-1.33-.8-2.42-1.95-5.58-1.45-8.16,1-5.4,5,2.83,6,4.75,3.66,7,7,14.24,10,21.56,5.94,14.27,11,28.9,15.94,43.53,8.32,24.6,17.82,48.83,25.08,73.78,3.72,12.82,7,25.88,8.55,39.15a120.91,120.91,0,0,1,.89,18.34c-.13,3.74-.13,8.65-2.44,11.84-3.53,4.89-7.12-3.39-8.53-6.24-12.25-24.74-22.71-50.37-32.34-76.23-11-29.47-20.86-59.38-29.28-89.68-.86-3.1-5.69-1.78-4.82,1.33Z"/><path class="cls-1" d="M460.19,568.58a97.84,97.84,0,0,0,6.63,31.55,2.5,2.5,0,0,0,4.82-1.33,160.58,160.58,0,0,0-18.7-53.92c-1.13-2-5-1.28-4.66,1.26a139.27,139.27,0,0,0,19.16,55.26,2.52,2.52,0,0,0,4.66-1.26,96.38,96.38,0,0,0-13.28-52.25c-1.47-2.5-5.18-.81-4.57,1.93a175.6,175.6,0,0,0,19.55,50.11c1.16,2,4.91,1.3,4.65-1.26A150.25,150.25,0,0,0,464.11,548c-1-2.15-5-1.2-4.65,1.26a531.65,531.65,0,0,0,10,55.7c.64,2.7,5.11,2.17,4.91-.67C472.88,583,466,562.93,458.93,543c-1.06-3-5.81-1.77-4.82,1.33q8.92,28,19.79,55.28c1,2.47,4.92,2.36,4.91-.67a235.4,235.4,0,0,0-7.6-58.16c-.7-2.67-5.08-2.2-4.91.67A419.12,419.12,0,0,0,479,622.17c.81,3.12,5.63,1.8,4.82-1.32a412.58,412.58,0,0,1-12.56-79.41l-4.91.66a229.94,229.94,0,0,1,7.42,56.83l4.91-.66Q467.86,571,458.93,543l-4.82,1.33c6.9,19.49,13.8,39.2,15.23,60l4.91-.66a522.1,522.1,0,0,1-9.79-54.37l-4.66,1.26a143.69,143.69,0,0,1,13.65,48.14l4.66-1.26a171.87,171.87,0,0,1-19-48.92l-4.57,1.92a91.35,91.35,0,0,1,12.6,49.73l4.66-1.26a133.35,133.35,0,0,1-18.48-52.74l-4.66,1.27a156.49,156.49,0,0,1,18.2,52.72l4.82-1.33a93.59,93.59,0,0,1-6.45-30.22c-.13-3.2-5.14-3.22-5,0Z"/><path class="cls-1" d="M463,571c2.5,28.5,14.79,56.11,24.55,82.71.93,2.52,4.95,2.31,4.92-.67-.19-15.35-4.6-30.59-9.6-45a304.36,304.36,0,0,0-18.5-42.73c-1.45-2.72-4.93-.65-4.57,1.93,3.72,27,13.7,53.74,23.56,79.05,1,2.51,4.87,2.32,4.91-.67.18-11.56-3.64-23.19-7.52-33.93a262.21,262.21,0,0,0-14.19-32.36c-1-1.84-4.16-1.51-4.57.59a63,63,0,0,0,4.17,37.9c1,2.38,4.64,1,4.66-1.26a95.4,95.4,0,0,0-8.61-40.23c-1.16-2.55-5.66-.69-4.57,1.93a247.49,247.49,0,0,1,11.82,36l4.82-1.33a342.74,342.74,0,0,0-14.19-39c-1.12-2.58-4.39-.83-4.66,1.26a73,73,0,0,0,5.71,39.12c1,2.36,4.68,1.06,4.66-1.26a135.41,135.41,0,0,0-5.11-35.62c-.88-3.09-5.71-1.78-4.83,1.33a130,130,0,0,1,4.94,34.29l4.66-1.26a68.43,68.43,0,0,1-5-36.6l-4.66,1.26a330.54,330.54,0,0,1,13.69,37.85c.91,3.09,5.59,1.8,4.82-1.33a246.29,246.29,0,0,0-11.82-36l-4.57,1.93a89.49,89.49,0,0,1,7.93,37.7l4.66-1.27a57,57,0,0,1-3.67-34l-4.57.6a251,251,0,0,1,13.68,31.17c3.74,10.32,7.52,21.5,7.35,32.6l4.91-.66c-9.86-25.31-19.83-52-23.56-79L460,567.9a295.82,295.82,0,0,1,18,41.52c4.85,14,9.24,28.77,9.42,43.66l4.91-.66c-4.86-13.23-9.88-26.4-14.29-39.79S469.2,585.23,468,571c-.28-3.18-5.29-3.21-5,0Z"/><path class="cls-1" d="M472.23,607.49c1.54,15.53,6.29,30.66,11.44,45.32,5.21,14.82,11.19,29.36,17.49,43.74,1,2.4,4.61,1,4.66-1.26.27-14.6-3.22-29.24-7-43.24-4-14.55-8.86-28.84-13.87-43.06a2.5,2.5,0,0,0-4.82,1.33c3.78,25.1,14.88,48.54,20.87,73.12.68,2.81,4.81,2.09,4.91-.67.4-10.59-2.88-21.36-6.09-31.34-3.39-10.56-7.46-20.89-11.64-31.16-1-2.49-4.85-2.35-4.91.66-.21,11.19,3.51,22.46,7.23,32.86A279.73,279.73,0,0,0,504,685.24c1.3,2.59,5.24.76,4.57-1.92a68.59,68.59,0,0,0-8.31-19.61c-1.7-2.72-6-.22-4.32,2.53a64,64,0,0,1,7.81,18.41l4.57-1.93a265.72,265.72,0,0,1-13-30.26c-3.57-10-7.27-20.8-7.06-31.53l-4.91.67c4,9.83,7.9,19.71,11.2,29.8s6.75,20.75,6.35,31.37l4.91-.66c-6-24.57-17.09-48-20.87-73.12l-4.82,1.33c4.83,13.73,9.55,27.52,13.45,41.55s7.55,28.74,7.28,43.42l4.65-1.26c-6.12-14-11.92-28.13-17-42.54-5-14.21-9.76-29-11.26-44-.31-3.17-5.31-3.2-5,0Z"/><path class="cls-1" d="M461.72,611.6c8,27.35,21.22,52.95,31.48,79.47,1.15,3,6,1.68,4.82-1.33-10.26-26.52-23.47-52.11-31.48-79.46-.9-3.09-5.73-1.77-4.82,1.32Z"/><path class="cls-1" d="M474.05,629.18c7.66,24.41,19.68,47.24,27.35,71.65a2.54,2.54,0,0,0,4.57.6A10,10,0,0,0,505.9,690c-1.79-2.65-6.12-.15-4.32,2.53a5.31,5.31,0,0,1,.08,6.39l4.56.6c-7.66-24.41-19.68-47.24-27.35-71.65-1-3.06-5.79-1.75-4.82,1.33Z"/><path class="cls-1" d="M492.55,677.77a127.57,127.57,0,0,0,13.78,37.81c1,1.74,4.23,1.58,4.57-.6a24.3,24.3,0,0,0-1.21-12.86c-1.13-3-6-1.69-4.82,1.33a19.34,19.34,0,0,1,1.21,10.2l4.56-.59a123.65,123.65,0,0,1-13.27-36.62c-.61-3.15-5.43-1.82-4.82,1.33Z"/><path class="cls-1" d="M502.5,695.76l7.73,25.43c.86,2.82,4.65,2.08,4.91-.66a186.64,186.64,0,0,0-4.24-61c-.74-3.13-5.57-1.81-4.82,1.32a182.46,182.46,0,0,1,4.06,59.65l4.91-.66-7.73-25.44c-.94-3.07-5.76-1.76-4.82,1.33Z"/><path class="cls-1" d="M507.48,714.24l-.49.22a2.44,2.44,0,0,0-1.24,2.16c0,2.12,1.49,4.2,3.84,3.84,3.29-.5,3.47-4.39,3.72-6.94,1.18-12.11,2.27-24.22,3.41-36.33.3-3.2-4.7-3.18-5,0l-1.8,19.12-.8,8.6-.45,4.78-.18,1.91c-.64,2.08.11,3.76,2.26,5l-1.24,2.15.49-.21c2.94-1.28.4-5.59-2.52-4.32Z"/><path class="cls-1" d="M512.88,721.39l.67,3.44c.56,2.89,4.76,2,4.91-.66q1.23-23.22.94-46.47c-.09-6.36-.31-12.7-2.39-18.77-2-5.84-5.13-11.26-7.85-16.78-4.19-8.48-8.41-16.95-12.42-25.52-2.23-4.77-4.44-9.56-6.4-14.45-1.19-3-1.77-7.43-4.64-9.18a2.57,2.57,0,0,0-3,.39,2.87,2.87,0,0,0-1.14,2.66,2.56,2.56,0,0,0,1.84,2.41l.38.12c3.1.9,4.42-3.92,1.33-4.82l-.38-.12,1.83,2.41-.33.87-3,.39c.78.48,1.43,3.86,1.76,4.71.68,1.77,1.41,3.52,2.16,5.27,1.87,4.41,3.87,8.77,5.91,13.1,3.77,8,7.72,15.93,11.63,23.87,2.6,5.26,5.66,10.43,7.56,16,2.25,6.59,2.18,13.52,2.25,20.4q.21,21.76-1,43.51l4.91-.67-.67-3.44c-.62-3.15-5.44-1.81-4.82,1.33Z"/><path class="cls-1" d="M511.83,707.91c-2.1-50.17-17.77-99.69-32.85-147.22l-2.41,3.17c2.83.13,3.49,9.82,3.91,11.93q1.33,6.76,2.81,13.52,3.12,14.33,6.77,28.53c4.62,18,9.7,36.06,16.26,53.51a2.53,2.53,0,0,0,4.18,1.1,10.2,10.2,0,0,0,3-10.37c-.77-3.12-5.59-1.8-4.82,1.33a5.31,5.31,0,0,1-1.7,5.51l4.18,1.1c-7.41-19.72-13-40.15-18-60.58q-3.78-15.36-7-30.84c-1.24-6.08-1.11-19.36-9.56-19.74a2.51,2.51,0,0,0-2.41,3.16c14.94,47.08,30.59,96.19,32.67,145.89.13,3.2,5.13,3.22,5,0Z"/><path class="cls-1" d="M465.66,547.59c11.12,35.63,26.7,69.71,37.82,105.33l4.82-1.32c-6.42-18.42-16.59-35.75-21.15-54.78-.75-3.13-5.57-1.81-4.82,1.33,4.56,19,14.73,36.37,21.15,54.77,1,3,5.79,1.78,4.82-1.32-11.12-35.63-26.7-69.71-37.82-105.34-1-3.06-5.78-1.75-4.82,1.33Z"/><path class="cls-1" d="M472.89,570.88c8.64,29.94,21.92,58.4,29.88,88.55l4.82-1.33c-5.07-17.89-14.89-34.12-20-52-.88-3.09-5.7-1.77-4.82,1.33,5.07,17.89,14.88,34.12,20,52,.88,3.09,5.64,1.79,4.82-1.33-8-30.15-21.23-58.61-29.88-88.55-.89-3.08-5.72-1.77-4.82,1.33Z"/><path class="cls-1" d="M468.66,579.29c5.18,27.15,17.73,52.74,27.45,78.45,1.12,3,6,1.69,4.82-1.33-9.72-25.71-22.27-51.3-27.45-78.45-.6-3.16-5.42-1.82-4.82,1.33Z"/><path class="cls-1" d="M483.52,615.29c5.36,20,15.72,38.3,21.08,58.28a2.51,2.51,0,0,0,4.91-.66l.27-26.88h-5l1.54,20.82c.24,3.19,5.24,3.21,5,0L509.78,646c-.23-3.17-5-3.26-5,0l-.27,26.88,4.91-.67c-5.36-20-15.72-38.3-21.08-58.28-.83-3.11-5.66-1.79-4.82,1.33Z"/><path class="cls-1" d="M446.1,511.77l25.36,63c1.17,2.91,5.65,1.87,4.82-1.33l-4-15.33c-.81-3.11-5.63-1.79-4.82,1.33l4,15.33,4.82-1.33-25.36-63c-1.18-2.94-6-1.66-4.82,1.33Z"/><path class="cls-1" d="M461.44,528.05q5.73,16.5,12.87,32.43c1,2.23,4.9,1.16,4.66-1.26a72.47,72.47,0,0,0-3.78-17.2c-1.06-3-5.89-1.72-4.82,1.33a67.5,67.5,0,0,1,3.6,15.87l4.65-1.26q-6.86-15.36-12.36-31.24c-1.05-3-5.88-1.72-4.82,1.33Z"/><path class="cls-1" d="M467.18,535.62l5.73,22.09c.81,3.11,5.63,1.79,4.82-1.33L472,534.29c-.81-3.11-5.63-1.79-4.82,1.33Z"/><path class="cls-1" d="M434.05,564.18a104.64,104.64,0,0,0-40.73,21.94c-2.43,2.11,1.12,5.63,3.54,3.53A99,99,0,0,1,435.38,569c3.1-.86,1.78-5.68-1.33-4.82Z"/><path class="cls-1" d="M356.26,610.78c21.27,28,24.85,64.35,38.44,96,3.45,8,8,17.57,18.59,14.28,9.24-2.88,10.67-13.35,10.55-21.67-.24-16.46-6.64-31.8-13.24-46.6-7.24-16.24-15.46-32.84-14.77-51.07.37-9.65-14.64-9.64-15,0-.75,19.66,7.4,37.67,15.27,55.2,3.81,8.46,7.58,17,10.1,25.92a65.35,65.35,0,0,1,2.48,12.93,56.88,56.88,0,0,1,.1,7.27c0,.86-.22,1.75-.23,2.61,0,2.88,0,1-.4,1l3.79,1c-2.24-1-4.38-8.64-5.35-11.09-1.77-4.49-3.37-9-4.87-13.62-3-9.2-5.63-18.53-8.49-27.78-5.64-18.27-12.35-36.56-24-51.93-2.46-3.25-6.44-4.87-10.26-2.69-3.2,1.82-5.13,7-2.69,10.26Z"/><path class="cls-1" d="M269.18,338.87q15.13,142.35,18.68,285.59,1,40.74,1,81.5c0,6.43,10,6.44,10,0q-.19-143.15-12-285.94-3.37-40.62-7.7-81.15c-.67-6.33-10.68-6.4-10,0Z"/><path class="cls-1" d="M469.62,615.32a294.86,294.86,0,0,0,14,31.74c1.47,2.86,5.79.33,4.32-2.53A281.59,281.59,0,0,1,474.44,614c-1.12-3-5.95-1.7-4.82,1.33Z"/><path class="cls-1" d="M475.27,595.51l12.33,43.28,4.57-1.93a191.06,191.06,0,0,1-19.66-62.79l-4.66,1.26A268,268,0,0,1,489,630.07c.82,3.11,5.64,1.79,4.82-1.33a274,274,0,0,0-21.65-55.93c-1.08-2.09-5-1.24-4.66,1.26a198,198,0,0,0,20.35,65.31c1.3,2.54,5.34.78,4.57-1.92l-12.34-43.28c-.88-3.09-5.71-1.78-4.82,1.33Z"/><path class="cls-1" d="M372.06,613.74q12.81,31.53,27.25,62.35c1,2.16,5,1.18,4.66-1.27a162.33,162.33,0,0,0-17.39-55.52c-1.43-2.7-3.92-10-8.27-8.21-2.92,1.23-1.64,6.07,1.33,4.82-.51.21,5.68,12.05,6.18,13.12a153.39,153.39,0,0,1,6.05,15.16,160.2,160.2,0,0,1,7.1,30.63l4.66-1.26q-14.17-30.22-26.75-61.15c-1.19-2.94-6-1.65-4.82,1.33Z"/><path class="cls-1" d="M378.71,614.3a228.78,228.78,0,0,0,17.41,66.86c1,2.41,4.61,1,4.66-1.26.36-16.85-2.78-33.4-6-49.86-.54-2.74-5.11-2.15-4.91.66A168.59,168.59,0,0,0,410.27,700c1.21,2.21,4.63,1.16,4.66-1.27a59.5,59.5,0,0,0-5.83-26.23c-1.1-2.32-4.66-1.09-4.66,1.26a226.58,226.58,0,0,0,1.34,24.7l4.91-.67a105.31,105.31,0,0,0-4.83-17.87,2.5,2.5,0,0,0-4.82,1.33,114.13,114.13,0,0,0,6.06,22c.94,2.43,5.08,2.37,4.91-.67a95.53,95.53,0,0,0-8.9-35.24c-1.36-2.92-5.68-.38-4.32,2.52A88.84,88.84,0,0,1,407,702.58l4.91-.66a114.13,114.13,0,0,1-6.06-22L401,681.26a105.06,105.06,0,0,1,4.83,17.87c.48,2.74,5.21,2.15,4.91-.66a226.58,226.58,0,0,1-1.34-24.7L404.78,675a53.52,53.52,0,0,1,5.15,23.71l4.66-1.26a162.36,162.36,0,0,1-19.76-66.78l-4.91.67c3.17,16,6.21,32.11,5.86,48.53l4.66-1.26a220.69,220.69,0,0,1-16.73-64.34c-.33-3.17-5.33-3.21-5,0Z"/><path class="cls-1" d="M453.36,535c5.54,13.9,8.91,28.5,12.53,43q5.81,23.25,11.62,46.49c.7,2.8,4.8,2.1,4.91-.66a111.17,111.17,0,0,0-23.77-72.86c-1.65-2.11-4.68.23-4.18,2.43a204,204,0,0,0,19.39,51.5c1.53,2.83,5.85.31,4.32-2.52A199,199,0,0,1,459.29,552l-4.17,2.43a106,106,0,0,1,22.3,69.33l4.91-.67q-5.82-23.25-11.62-46.49c-3.62-14.48-7-29.08-12.53-43-1.18-2.95-6-1.66-4.82,1.33Z"/><path class="cls-1" d="M445.3,561.72a191.51,191.51,0,0,0,22.28,43.72c5.43,7.9,18.44.41,12.95-7.57a177.13,177.13,0,0,1-20.77-40.14c-3.25-9-17.75-5.12-14.46,4Z"/><path class="cls-1" d="M448.73,564.39q13.39,34.79,25.31,70.12l13.71-5.78L476.1,610.19l-13,7.57,25,39.67c6.6,10.48,18.93,24.55,15.65,37.88h14.47A504.49,504.49,0,0,0,486,627.62c-4.8-8.37-17.77-.82-13,7.57a477.75,477.75,0,0,1,30.78,64.11c2.5,6.4,12.55,7.81,14.47,0,4.08-16.61-5.52-30.95-14-44.37L476.1,610.19c-5.13-8.15-18.11-.64-13,7.57l11.64,18.54c4.35,6.92,16.54,2.59,13.71-5.78q-11.91-35.32-25.31-70.12c-1.45-3.76-5.05-6.4-9.22-5.24-3.61,1-6.71,5.42-5.24,9.23Z"/><path class="cls-1" d="M470.17,628.42a256.87,256.87,0,0,0,21.35,46.79c3.87,6.6,13.68,3.51,14-3.78a60,60,0,0,0-4.37-25.33c-1.52-3.73-5-6.43-9.22-5.24-3.54,1-6.79,5.44-5.24,9.23a49.4,49.4,0,0,1,3.83,21.34l14-3.79a236.53,236.53,0,0,1-19.85-43.21c-3.1-9.08-17.59-5.18-14.46,4Z"/><path class="cls-1" d="M459.5,535.73a165,165,0,0,0,16.37,59.19c4.25,8.66,17.19,1.07,12.95-7.57a145.3,145.3,0,0,1-14.32-51.62c-.81-9.55-15.82-9.63-15,0Z"/><path class="cls-1" d="M475.06,587.1q9.54,26.82,21.24,52.77l13-7.57a25.1,25.1,0,0,0-4.15-5.86c-6.55-7.12-17.13,3.51-10.61,10.61a10.59,10.59,0,0,1,1.8,2.82c1.8,3.66,6.93,4.59,10.26,2.69,3.83-2.18,4.35-6.59,2.7-10.26q-10.89-24.18-19.74-49.18c-3.21-9-17.71-5.14-14.46,4Z"/><path class="cls-1" d="M477,601.11A662.29,662.29,0,0,0,498,678c3.08,9.09,17.58,5.19,14.46-4a663.38,663.38,0,0,1-21-76.85c-2-9.44-16.44-5.45-14.46,4Z"/><path class="cls-1" d="M498.13,686l1,13.84c.29,4,3.24,7.5,7.5,7.5,3.84,0,7.79-3.44,7.5-7.5l-1-13.84c-.28-4-3.24-7.5-7.5-7.5-3.83,0-7.78,3.44-7.5,7.5Z"/><path class="cls-1" d="M520.69,718.13a333,333,0,0,0-13.28-49.56c-3.19-9-17.69-5.15-14.47,4a333,333,0,0,1,13.29,49.56c1.77,9.47,16.23,5.46,14.46-4Z"/><path class="cls-1" d="M264.78,338.74A2579.25,2579.25,0,0,1,285.2,624.65q.63,40.54,0,81.09c-.16,9.65,14.84,9.66,15,0a2578.68,2578.68,0,0,0-11.39-286.41q-3.87-40.36-9-80.59c-.51-4-3.08-7.5-7.5-7.5-3.66,0-8,3.46-7.5,7.5Z"/><path class="cls-1" d="M444.62,527.48c9.65,0,9.67-15,0-15s-9.67,15,0,15Z"/><path class="cls-1" d="M428.16,291.2c-1.9,74.19,16.78,146.54,28.63,219.25,3.39,20.75,6.15,41.58,7.73,62.55.72,9.57,15.72,9.65,15,0-5.57-73.83-26-145.46-33.66-219a486.1,486.1,0,0,1-2.7-62.8c.24-9.66-14.76-9.65-15,0Z"/><path class="cls-1" d="M510.67,492c21.75-5.78,16.78-37.12,12.13-52.77-2.25-7.58-14.14-4.35-11.88,3.28,2.32,7.79,2.95,15.59,2.92,23.73,0,5.11.55,11.82-5.44,13.37-6.52,1.7-6.41-5.17-7.8-10.39-2.1-7.94-2.3-25.69-6.21-32.9-1.59-2.95-8.26-3.11-11.17-2.3-3.54,1-4.77,4.26-4.3,7.58,1.5,10.67,2.95,29.83,8.26,39.45C491.84,489.46,501.1,494.52,510.67,492Z"/><path class="cls-1" d="M596.67,462q-.51-10.35-1-20.7-.5-9.85-1-19.72c-.32-6.44.08-13.47-1.47-19.76-3.83-15.49-22.76-17.46-34.48-15.61a7.26,7.26,0,0,0-2.08.68c-1.4-10.85-2.88-16.19-4.44-27,11.26-16.06,11.14-38.42,5.86-57.49-5.19-18.7-18.09-38.1-38.25-42.41a140.33,140.33,0,0,0-42.94-2c-20.64,2.1-41.6,7.87-54.16,25.63-4.67,6.62-1.18,16.68,5.39,20.52.36.21.72.39,1.09.57a34.26,34.26,0,0,0-1.27,4.78c-1.81,9.43,12.64,13.48,14.46,4,2.92-15.25,18.19-22.19,32.33-23.5a131.54,131.54,0,0,1,26.09.51,65,65,0,0,1,8,1.3c14,7.29,15.49,30.3,12.14,44.06-3.63,15-16.31,21.28-30.52,23.37a49.25,49.25,0,0,1-17.93-1,10.37,10.37,0,0,0-2.2-.24c-7.85.05-15.37,6.87-15,15s6.59,17.55,15,17.5c13.21-.08,23.51-1.55,36.43-4.26,7.55-1.58,15.51-6.11,22.88-9.18q6.23,45.06,10.35,90.37c.77,8.49,5.43,17.11,5.51,25.65.05,6.52-2,13.36-7,16.25-11.45,6.54-28.31,10.12-41.87,9.66-6.76-.23-12.5,1.91-12.5,8.5,0,7,3.94,13.14,10.71,13.37,17.5.6,36.51-2.11,52.16-10.34,4.29-2.26,7.53-8.07,10.8-11.61,2,15.05,6.57,29,22.82,35.25,9,3.44,9.43-11,.49-14.47-7.35-2.8-6.43-10.18-7.84-17.3-1.36-6.88-1.62-13.94-2.2-20.94.3,0,2.61,0,2.91,0,12.22-1.34,22.27-6,23.49-20C597.92,475.06,597,468.38,596.67,462Zm-16.9,21.32c-.63.65-4.24,1-5.39,1.09-2,.22-5.75.4-7.53.4-.19-2-.89-5.52-1.06-7.5q-2.87-33.29-6.86-66.46A13.34,13.34,0,0,0,564,411a67.78,67.78,0,0,1,10-1.2c.07,1.63.27,3.29.35,4.88.19,3.95.89,7.89,1.08,11.83l1.23,24.64c.39,7.89,2.8,18.77,3.18,26.66C579.86,479,580.39,482.68,579.77,483.32Z"/><path class="cls-1" d="M295.27,700.41c-7.89-.27-18.37.88-18.28,11.07,0,4.21,1.37,8.42,5.94,9.31,4.31.83,9.33.3,13.68,0,3.91-.25,7.55-1.24,9.56-4.93a12.73,12.73,0,0,0,.12-11.09c-3.76-8.19-15.75-2.42-21.17.94s-.44,12,5.05,8.63c2.07-1.28,7.35-4.47,9.62-3.76l-3-2.3c2.09,3.25-.55,2.56-3.09,2.65-2.9.1-6.48.56-9.33-.06l3,2.3c-2.68-3.57,6.3-2.83,7.9-2.77,6.44.22,6.43-9.78,0-10Z"/></svg>