<?xml version="1.0" encoding="utf-8"?>
<!-- Generator: Adobe Illustrator 22.0.1, SVG Export Plug-In . SVG Version: 6.00 Build 0)  -->
<svg version="1.1" id="Layer_1" xmlns="http://www.w3.org/2000/svg" xmlns:xlink="http://www.w3.org/1999/xlink" x="0px" y="0px"
	 viewBox="0 0 62.3 62.3" style="enable-background:new 0 0 62.3 62.3;" xml:space="preserve">
<style type="text/css">
	.st0{fill:#a8a8a8;}
</style>
<path class="st0" d="M61.7,58.8L40.5,37.7c3.3-4,5.3-9.1,5.3-14.7c0-12.6-10.2-22.8-22.8-22.8C10.5,0.2,0.2,10.5,0.2,23.1
	c0,12.6,10.2,22.8,22.8,22.8c5.6,0,10.7-2,14.7-5.3l21.1,21.1c0.4,0.4,0.9,0.6,1.4,0.6s1-0.2,1.4-0.6C62.4,60.9,62.4,59.6,61.7,58.8
	z M23.1,41.9c-10.4,0-18.8-8.4-18.8-18.8c0-10.4,8.4-18.8,18.8-18.8s18.8,8.4,18.8,18.8C41.9,33.4,33.4,41.9,23.1,41.9z"/>
</svg>
